<?xml version="1.0" standalone="no"?>
<!DOCTYPE svg PUBLIC "-//W3C//DTD SVG 20010904//EN"
 "http://www.w3.org/TR/2001/REC-SVG-20010904/DTD/svg10.dtd">
<svg version="1.0" xmlns="http://www.w3.org/2000/svg"
 width="1015.000000pt" height="1022.000000pt" viewBox="0 0 1015.000000 1022.000000"
 preserveAspectRatio="xMidYMid meet">

<g transform="translate(0.000000,1022.000000) scale(0.100000,-0.100000)"
fill="#000000" stroke="none">
<path d="M0 5110 l0 -5110 5075 0 5075 0 0 5110 0 5110 -5075 0 -5075 0 0
-5110z m6312 4291 c17 -31 43 -59 72 -77 25 -16 46 -32 46 -35 0 -4 -18 -18
-39 -32 -58 -38 -90 -77 -103 -122 l-11 -40 -13 49 c-16 62 -40 95 -86 120
l-35 20 53 49 c29 26 59 64 66 83 6 19 14 34 18 34 3 0 17 -22 32 -49z m-3897
-56 c119 -25 208 -76 306 -175 66 -66 95 -104 122 -161 59 -123 79 -195 85
-306 l5 -103 29 0 c29 0 48 -28 48 -68 -1 -27 -35 -61 -66 -64 -22 -2 -33 -12
-46 -41 -25 -54 -54 -88 -96 -114 -46 -28 -77 -29 -120 -3 -44 27 -73 95 -101
240 -26 130 -38 160 -80 189 -32 23 -131 30 -131 10 0 -12 86 -167 130 -234
15 -22 51 -85 80 -140 51 -95 54 -104 55 -175 0 -65 -4 -82 -30 -130 -16 -30
-67 -92 -112 -138 -64 -65 -99 -91 -160 -120 -74 -35 -83 -37 -178 -36 -122 0
-173 20 -245 94 -71 73 -93 138 -88 260 6 120 33 195 97 263 25 28 65 59 89
69 52 23 60 40 37 74 -12 19 -20 23 -28 15 -6 -6 -20 -11 -32 -11 -18 0 -17 2
8 23 l28 22 -52 80 c-75 116 -256 419 -297 498 -29 58 -32 70 -21 84 35 42
181 79 384 98 191 17 297 17 380 0z m5060 -5 c124 -12 307 -57 399 -99 313
-143 570 -431 685 -772 61 -177 87 -408 61 -539 -4 -25 -6 -47 -4 -49 2 -2 26
17 53 42 44 41 54 46 83 41 80 -15 332 -180 563 -370 44 -36 98 -80 120 -98
l40 -33 -1 -159 c-1 -142 -4 -169 -28 -249 -59 -197 -127 -300 -296 -451 -122
-109 -140 -122 -225 -167 -54 -28 -69 -31 -150 -31 -76 0 -100 4 -156 27 -110
46 -186 136 -210 247 -6 27 -13 50 -16 50 -3 0 -23 -15 -45 -34 -81 -69 -192
-104 -276 -86 -26 6 -56 12 -67 15 -19 4 -20 -1 -20 -174 l0 -179 180 -5 c112
-3 208 -12 255 -22 229 -51 531 -268 656 -470 55 -91 112 -227 138 -330 23
-91 32 -308 17 -402 -15 -94 -81 -289 -127 -370 -88 -158 -283 -343 -454 -433
-196 -102 -455 -144 -654 -105 -84 16 -130 34 -86 35 14 0 66 -7 115 -15 50
-8 108 -14 130 -13 l40 1 -45 7 -45 7 40 3 c133 11 192 22 305 57 234 72 403
187 526 359 51 71 98 169 91 188 -6 14 -53 10 -63 -5 -3 -5 -15 -9 -26 -9 -19
0 -20 4 -15 45 4 24 3 46 -1 49 -5 3 -21 -4 -38 -15 -38 -25 -47 -24 -40 5 9
36 -9 40 -51 11 -61 -41 -77 -32 -48 26 20 38 39 131 22 108 -18 -24 -80 -100
-94 -114 -7 -8 -13 -19 -13 -25 0 -9 -35 -6 -48 5 -2 1 9 29 24 61 14 33 36
88 49 124 13 36 30 81 37 100 22 53 22 131 -1 215 -19 69 -57 145 -79 159 -5
3 -22 -8 -38 -25 -27 -28 -29 -36 -29 -107 1 -76 1 -76 -11 -36 -16 54 -27 74
-78 143 -53 70 -63 87 -47 77 7 -5 23 -9 37 -11 20 -2 24 2 24 24 0 15 -8 37
-17 50 -12 18 -13 22 -2 16 8 -5 6 1 -5 13 -10 12 -23 19 -27 16 -5 -3 -6 2
-3 11 4 9 3 15 -2 13 -5 -2 -19 7 -32 20 -12 12 -18 22 -13 22 12 0 78 -46
107 -75 14 -14 32 -25 40 -25 26 0 6 41 -42 88 -24 24 -48 52 -54 62 -6 11
-19 20 -29 20 -20 0 -48 27 -37 37 13 13 93 -24 161 -75 71 -54 95 -54 56 -1
-11 15 -21 33 -21 38 0 5 -10 18 -23 28 -13 10 -22 24 -19 31 2 6 -1 12 -7 12
-13 0 -15 26 -3 34 17 10 105 -30 155 -71 29 -24 56 -43 60 -43 17 0 -31 65
-82 111 -30 27 -51 52 -48 56 4 4 41 -5 82 -19 45 -16 75 -22 75 -15 0 6 10 2
23 -9 55 -49 60 -50 36 -8 -70 118 -276 243 -505 306 -84 22 -281 31 -355 15
-36 -7 -38 -10 -58 -80 -48 -167 -57 -195 -67 -208 -7 -8 -26 -47 -42 -87 -39
-91 -77 -146 -166 -240 -120 -127 -259 -222 -424 -293 -127 -54 -154 -62 -245
-71 -136 -14 -319 -6 -377 16 -25 10 -50 18 -56 19 -6 1 -69 -48 -140 -109
-71 -62 -142 -123 -158 -136 l-29 -25 32 -19 c44 -26 116 -120 151 -197 26
-58 38 -70 127 -137 147 -110 256 -223 295 -306 31 -66 33 -76 36 -204 l4
-135 -50 -138 c-46 -127 -54 -173 -22 -111 8 14 35 37 60 52 125 71 197 117
220 137 64 60 166 126 187 122 12 -2 20 0 17 4 -5 9 42 59 55 59 15 0 72 -61
66 -70 -4 -6 -11 -8 -16 -5 -5 4 -14 -6 -19 -20 -6 -15 -15 -25 -21 -23 -6 2
-32 -17 -57 -42 -26 -25 -65 -58 -87 -73 -204 -138 -326 -211 -355 -213 -9 -1
-33 -9 -54 -19 -30 -14 -40 -15 -46 -5 -11 17 -23 9 -124 -87 l-87 -81 68 -10
c109 -17 190 -22 173 -12 -13 8 -12 10 2 10 40 0 357 187 536 315 64 45 140
99 167 119 98 70 99 70 139 32 20 -18 36 -38 36 -43 0 -38 -148 -173 -190
-173 -10 0 -28 -9 -42 -19 -38 -31 -200 -135 -233 -151 -16 -8 -43 -24 -60
-36 -16 -11 -40 -24 -52 -28 -12 -4 -37 -19 -56 -35 l-35 -27 44 -13 c24 -7
70 -17 101 -21 32 -4 114 -19 182 -34 68 -14 136 -26 150 -26 25 0 67 24 226
128 150 99 305 222 419 332 l118 115 95 12 c95 12 164 38 190 71 7 10 13 13
13 9 1 -32 -306 -387 -335 -387 -8 0 -17 -9 -20 -20 -7 -23 -115 -119 -196
-174 -30 -20 -95 -65 -145 -100 l-91 -63 78 -12 77 -13 124 88 c67 49 154 115
192 149 92 81 316 331 417 465 45 60 85 109 88 108 3 0 9 1 14 2 16 5 28 8 50
9 18 1 19 3 7 11 -13 8 -12 10 3 10 9 0 17 6 17 13 0 7 15 24 33 37 31 23 45
25 39 6 -2 -5 4 -4 12 4 9 7 16 9 16 4 0 -16 92 81 117 124 14 23 29 42 33 42
4 0 13 14 19 30 10 29 31 42 31 19 0 -20 -80 -200 -127 -289 -105 -195 -295
-461 -435 -608 -60 -62 -296 -276 -339 -306 -13 -8 -21 -17 -18 -19 2 -2 30
-18 62 -35 l58 -30 42 38 c366 336 407 384 605 695 174 275 303 576 347 814
20 108 19 155 -2 172 -11 10 -17 10 -20 3 -2 -6 -10 -20 -18 -30 -12 -16 -11
-8 1 46 59 248 69 401 39 576 -64 365 -290 675 -619 850 -127 68 -202 91 -358
114 -79 11 -144 24 -146 28 -1 4 -36 6 -77 4 -50 -3 -75 -1 -75 7 0 16 44 24
100 19 43 -4 49 -2 59 19 13 28 15 28 182 3 160 -25 236 -48 349 -108 110 -58
167 -102 312 -242 162 -156 246 -283 310 -470 55 -161 69 -229 75 -370 6 -165
-12 -525 -32 -640 -15 -83 -90 -345 -105 -365 -3 -5 -17 -37 -30 -70 -39 -101
-126 -268 -201 -387 -39 -62 -75 -121 -80 -130 -8 -15 1 -23 56 -49 70 -33 98
-65 256 -289 147 -210 163 -316 76 -510 -57 -127 -156 -242 -241 -281 -110
-50 -242 -4 -297 103 -10 20 -23 39 -29 43 -5 3 -40 -11 -77 -31 -65 -34 -71
-36 -143 -31 -41 3 -82 8 -90 11 -13 5 -14 -4 -12 -59 l4 -65 -81 -82 c-91
-92 -90 -74 -9 -165 20 -22 47 -61 59 -85 45 -88 49 -125 49 -464 0 -177 -3
-336 -6 -354 -8 -38 -96 -136 -174 -193 -30 -22 -89 -70 -130 -107 -41 -37
-84 -72 -95 -77 -17 -9 -63 11 -270 112 -137 67 -270 137 -295 156 -39 28 -54
33 -110 35 -62 2 -232 55 -429 134 -30 12 -97 30 -149 41 -52 10 -136 30 -186
43 -163 43 -163 43 -203 -3 -43 -51 -201 -184 -313 -264 -279 -199 -772 -351
-1258 -388 -155 -12 -500 -6 -646 11 -182 22 -360 60 -568 121 -253 75 -345
110 -566 220 l-204 100 -61 -20 c-34 -10 -127 -43 -207 -71 -131 -46 -146 -50
-155 -35 -27 46 -66 95 -75 95 -6 0 -10 -33 -10 -79 l0 -79 -92 -37 c-51 -20
-113 -48 -138 -61 -24 -14 -78 -39 -118 -55 -67 -26 -77 -28 -101 -16 -62 33
-230 126 -276 154 -50 29 -50 30 -48 79 1 27 5 298 9 603 7 530 6 554 -11 547
-42 -16 -165 -26 -244 -20 -158 11 -334 75 -466 169 -128 91 -275 284 -345
452 -54 130 -73 244 -67 413 7 207 39 309 149 470 99 146 146 200 214 242 35
22 64 45 64 51 0 5 -22 51 -49 101 -76 141 -216 521 -270 732 -52 202 -91 557
-93 834 -1 165 1 193 15 207 9 9 19 14 22 11 4 -3 10 -97 15 -209 21 -451 125
-901 318 -1374 38 -94 88 -207 111 -252 22 -46 41 -84 41 -86 0 -2 -31 -25
-69 -50 -231 -153 -366 -373 -390 -634 -26 -285 85 -573 296 -773 44 -41 105
-90 136 -109 148 -87 399 -138 555 -111 l72 12 0 66 c0 37 3 103 6 147 l5 80
-90 103 c-131 148 -127 173 34 237 39 15 91 38 117 51 26 13 70 29 98 35 28 6
54 17 57 25 3 9 -36 59 -104 132 -295 318 -383 441 -588 822 -134 249 -283
631 -363 930 -36 131 -101 481 -112 595 -6 61 -17 192 -25 292 -8 100 -19 219
-25 265 -16 130 -11 168 10 73 14 -69 18 -75 21 -45 2 19 -4 67 -14 105 -15
55 -17 91 -13 169 4 55 10 104 15 110 9 12 25 128 22 166 -9 105 11 276 30
265 5 -4 8 4 8 17 -1 13 15 59 36 103 20 44 48 110 61 147 14 37 61 136 106
220 109 207 144 261 277 433 89 114 260 299 269 290 3 -2 11 3 19 13 8 9 12
12 9 5 -4 -6 -1 -13 6 -15 8 -3 4 -12 -10 -26 -12 -12 -22 -28 -22 -35 0 -7
-5 -18 -11 -24 -9 -9 -7 -10 9 -6 12 3 19 9 16 14 -3 5 3 9 12 9 16 0 15 -2
-2 -22 -10 -13 -26 -30 -35 -38 -41 -37 -272 -341 -343 -452 -44 -68 -107
-181 -140 -253 -50 -108 -60 -139 -61 -186 0 -31 -6 -63 -13 -72 -15 -17 -6
-47 14 -47 7 0 11 6 8 14 -3 7 17 40 44 72 58 70 140 188 210 301 97 157 271
354 407 462 53 42 183 121 199 121 15 0 4 -70 -15 -91 -11 -13 -17 -17 -13
-10 4 9 -6 6 -24 -8 -18 -12 -32 -27 -32 -33 0 -6 8 -4 18 5 10 10 22 17 26
17 9 0 -76 -81 -88 -83 -13 -3 -61 -58 -69 -79 -3 -10 -34 -54 -69 -98 -35
-45 -70 -91 -78 -104 -8 -12 -27 -37 -41 -56 -14 -19 -31 -48 -37 -65 -5 -16
-13 -38 -17 -47 -10 -25 6 -23 80 11 48 22 88 54 165 130 56 56 108 101 116
101 8 0 14 5 14 10 0 6 8 10 18 10 10 0 24 6 31 13 10 10 15 8 27 -7 18 -26
18 -50 -2 -67 -13 -10 -17 -10 -25 2 -7 11 -9 9 -9 -9 0 -12 -5 -31 -12 -41
-9 -14 -9 -26 1 -49 15 -35 43 -50 115 -58 l53 -6 87 87 c86 86 88 87 103 66
14 -21 12 -27 -35 -99 -28 -42 -56 -89 -63 -104 -13 -29 -25 -30 -88 -6 -13 5
-79 15 -146 23 -191 22 -338 3 -470 -63 -266 -132 -448 -327 -525 -562 -64
-196 -75 -389 -34 -595 2 -11 7 -35 10 -52 3 -18 10 -33 14 -33 10 0 22 -50
25 -101 1 -20 12 -49 24 -66 18 -23 24 -52 31 -134 6 -57 12 -130 15 -162 5
-54 54 -288 111 -532 66 -280 156 -536 278 -797 86 -185 244 -434 408 -646
102 -131 161 -195 329 -352 112 -106 118 -110 169 -115 57 -5 76 -16 85 -46 4
-10 10 -19 14 -19 7 0 -3 118 -10 124 -2 2 -24 17 -49 35 -68 48 -273 253
-360 361 -316 390 -493 701 -646 1137 -102 292 -208 803 -166 803 9 0 38 -69
35 -81 -2 -5 9 -17 22 -27 14 -11 25 -23 25 -26 0 -4 9 -19 20 -34 10 -15 38
-99 61 -187 44 -173 54 -205 101 -335 90 -249 176 -446 255 -582 32 -55 67
-116 79 -137 19 -34 39 -62 119 -171 15 -19 54 -78 89 -130 79 -121 277 -385
353 -471 77 -88 88 -102 96 -122 14 -36 52 -38 170 -12 62 14 132 32 157 40
25 7 68 16 95 20 46 6 188 31 495 90 69 14 170 31 225 39 490 73 531 87 290
100 -55 3 -143 12 -195 20 -52 8 -147 22 -211 31 -149 19 -259 52 -389 116
-91 45 -117 64 -196 143 -72 72 -100 108 -133 174 -49 98 -71 176 -74 265 l-2
64 -115 6 c-63 3 -150 13 -193 22 -43 9 -81 15 -83 12 -3 -3 11 -36 30 -73 19
-38 40 -82 46 -99 8 -22 13 -26 20 -16 14 24 38 4 82 -71 24 -40 55 -91 71
-113 80 -117 187 -284 187 -294 0 -15 -13 -14 -29 1 -8 7 -5 0 5 -17 18 -28
18 -29 0 -16 -30 25 -174 209 -218 279 -67 109 -178 322 -196 377 l-17 51 -87
36 c-49 19 -88 33 -88 29 0 -32 88 -254 146 -369 43 -86 64 -136 52 -125 -20
18 -21 17 -10 -2 34 -62 108 -184 127 -211 13 -17 45 -71 71 -120 26 -49 51
-93 55 -98 5 -6 9 -17 9 -25 0 -25 -106 86 -184 194 -124 169 -211 320 -266
462 -46 118 -64 153 -77 153 -16 0 -16 -10 -2 -84 6 -32 8 -60 5 -63 -13 -14
-102 209 -150 379 -29 102 -43 131 -103 215 -58 81 -96 168 -127 288 -58 221
-13 443 125 631 51 69 155 166 225 209 57 35 186 82 262 95 35 6 60 17 73 32
l20 23 -6 -22 c-6 -20 -3 -23 24 -23 47 0 63 22 112 148 10 26 12 125 3 135
-9 9 -54 -43 -54 -63 0 -23 -38 -107 -52 -116 -8 -5 -9 2 -4 22 23 97 26 120
17 146 -6 16 -7 74 -4 132 l6 105 23 -17 c23 -17 54 -88 54 -126 0 -18 2 -18
11 -6 6 9 7 44 4 88 -6 68 -6 72 14 72 24 0 55 -44 73 -105 l12 -40 7 45 c5
29 6 9 4 -54 -3 -103 -15 -135 -61 -160 -27 -15 -34 -27 -34 -58 0 -15 -6 -33
-13 -40 -28 -28 -37 -55 -23 -67 7 -6 16 -8 19 -4 4 3 7 4 7 0 0 -3 -7 -13
-16 -22 -20 -19 -19 -21 27 -29 40 -7 37 -11 65 84 29 101 34 130 44 250 13
147 25 168 71 124 16 -15 29 -36 31 -48 2 -11 11 17 21 64 28 131 65 235 104
293 77 112 180 244 230 295 l52 52 -7 91 -7 91 -25 -19 c-49 -37 -119 -73
-125 -64 -9 15 112 111 139 111 31 0 40 46 30 139 -4 36 -7 69 -6 74 4 15 -11
6 -88 -53 -43 -33 -83 -60 -88 -60 -14 0 -63 -56 -55 -64 4 -4 1 -5 -7 -2 -15
5 -70 -35 -70 -52 0 -10 -70 -42 -93 -42 -9 0 -19 -4 -22 -10 -3 -5 -17 -10
-31 -10 -13 0 -24 -4 -24 -9 0 -5 -9 -11 -20 -14 -26 -7 -26 -7 12 50 81 122
289 315 449 417 54 33 59 40 88 118 18 45 30 87 29 94 -4 17 -197 -106 -323
-206 -108 -85 -191 -163 -270 -253 -41 -48 -51 -55 -57 -40 -3 10 -7 12 -7 6
-1 -16 -43 -17 -59 -1 -18 18 -14 53 8 73 11 10 18 20 16 23 -6 6 -60 -35 -89
-67 -12 -14 -37 -40 -55 -60 -17 -19 -32 -40 -32 -47 0 -6 -6 -23 -13 -37 -9
-18 -17 -23 -27 -17 -15 10 -7 23 93 153 71 93 309 324 415 405 151 113 405
259 501 288 49 14 55 20 107 99 30 47 54 87 54 91 0 3 -15 -3 -32 -14 -18 -11
-80 -36 -138 -55 -127 -43 -242 -96 -330 -152 -86 -55 -105 -65 -129 -65 -19
0 -19 1 2 39 12 22 25 37 29 35 5 -3 8 0 8 7 0 13 16 27 70 63 117 77 399 193
510 211 78 12 92 18 133 59 23 23 89 84 147 135 58 52 106 97 108 101 1 4 -4
7 -13 7 -8 0 -15 -4 -15 -8 0 -5 -15 -8 -33 -7 -19 1 -40 -3 -47 -7 -9 -6 -11
-4 -5 5 6 10 4 12 -9 7 -10 -4 -15 -3 -11 3 3 6 13 10 22 10 9 0 13 6 10 14
-4 9 4 16 25 20 55 11 78 7 86 -14 8 -21 8 -21 42 2 212 142 433 250 633 309
479 143 841 163 1286 74 157 -32 393 -110 530 -175 57 -28 108 -50 113 -50 6
0 36 24 68 53 92 86 266 205 375 257 170 80 307 119 510 143 61 8 123 7 230
-3z m-3461 -125 c26 -20 28 -26 16 -40 -28 -34 -49 -38 -96 -16 -24 12 -49 21
-54 21 -6 0 -8 5 -5 10 3 6 14 10 23 10 9 0 28 9 42 20 32 25 39 24 74 -5z
m-399 -219 l30 -13 -55 -16 c-30 -9 -77 -16 -105 -15 -27 0 -72 -6 -100 -14
-27 -9 -74 -19 -102 -23 -46 -6 -53 -5 -53 10 0 13 6 16 25 13 14 -3 28 -2 30
2 2 4 17 6 32 4 22 -4 24 -3 8 4 -16 8 -14 10 15 15 19 4 67 15 105 26 82 23
129 25 170 7z m-398 -78 c-2 -24 -150 -78 -215 -78 -42 0 -53 4 -62 21 -7 11
-10 22 -8 24 2 2 37 15 78 29 90 31 209 34 207 4z m-1869 -251 c29 -51 69 -94
121 -128 l24 -15 -52 -38 c-49 -35 -68 -62 -95 -141 -6 -17 -13 -10 -39 40
-28 53 -39 63 -92 89 l-60 29 25 16 c74 48 120 119 120 183 0 32 17 19 48 -35z
m-500 -202 c7 6 29 -30 103 -169 64 -118 63 -116 51 -116 -5 0 -34 45 -66 99
-31 55 -62 104 -69 109 -16 12 -109 43 -115 37 -2 -2 15 -53 38 -112 107 -276
107 -279 63 -289 -47 -10 -53 -13 -51 -26 4 -18 -52 -43 -71 -31 -20 12 -27
89 -10 109 7 9 32 14 70 14 34 0 59 4 59 10 0 6 -18 46 -39 89 -34 67 -111
269 -111 290 0 5 32 2 72 -6 39 -7 73 -11 76 -8z m853 -113 c-6 -2 -9 -7 -6
-11 2 -5 -7 -18 -20 -31 -19 -18 -27 -20 -38 -11 -11 8 -22 9 -42 1 -40 -15
-41 -7 -3 25 47 40 89 56 107 42 9 -8 10 -12 2 -15z m7307 -52 c15 -32 39 -61
67 -81 l44 -31 -47 -32 c-26 -17 -58 -48 -71 -68 l-24 -37 -23 49 c-17 37 -33
54 -65 70 l-42 22 30 17 c40 25 80 75 88 111 4 16 10 30 13 30 4 -1 17 -23 30
-50z m-7098 -570 c0 -5 -9 -10 -20 -10 -15 0 -20 -7 -20 -25 0 -29 0 -29 -34
-13 -20 9 -23 14 -15 25 6 7 20 13 30 13 10 0 21 5 24 10 3 6 13 10 21 10 8 0
14 -4 14 -10z m-12 -434 c107 -33 265 -115 345 -181 107 -88 222 -251 279
-393 17 -42 32 -80 35 -84 2 -4 -3 -5 -11 -2 -8 3 -17 13 -21 22 -5 13 -8 14
-14 3 -6 -10 -11 -4 -16 20 -33 149 -189 350 -350 451 -86 54 -98 60 -208 98
-143 49 -298 59 -442 28 -88 -19 -312 -144 -293 -163 10 -10 68 17 61 29 -3 5
-1 6 6 2 6 -4 23 -1 36 8 40 27 179 73 255 86 85 14 244 6 285 -16 15 -8 42
-14 60 -14 38 0 184 -70 243 -118 45 -36 79 -79 69 -88 -5 -6 -97 62 -139 102
-9 9 -25 14 -35 12 -10 -3 -40 6 -67 19 -118 59 -371 77 -481 35 -64 -25 -171
-90 -201 -123 -17 -19 -17 -20 2 -13 10 4 46 23 80 41 110 60 166 74 299 76
91 1 135 -3 180 -17 79 -24 178 -77 262 -140 58 -43 68 -56 71 -85 l4 -35 -64
60 c-108 101 -239 154 -400 162 -114 5 -146 -3 -268 -64 -46 -23 -105 -72 -97
-80 3 -3 34 11 69 30 120 66 243 88 364 66 91 -17 191 -67 172 -86 -3 -2 -31
7 -64 20 -38 15 -91 26 -150 31 -87 7 -93 6 -183 -29 -95 -37 -164 -77 -143
-84 6 -2 46 8 89 23 115 38 212 51 282 35 97 -21 92 -30 -14 -24 -140 9 -275
-27 -288 -76 -7 -28 21 -26 81 5 36 19 64 25 108 26 77 0 94 -3 88 -13 -5 -7
37 -13 61 -8 6 1 6 -2 2 -6 -4 -5 -49 -8 -100 -9 -80 0 -99 -4 -144 -27 -70
-37 -169 -131 -198 -188 -90 -177 -28 -405 142 -527 40 -28 60 -49 53 -53 -8
-5 -7 -12 5 -24 19 -19 7 -21 -29 -5 -14 7 -23 16 -20 20 3 5 -2 6 -10 3 -21
-8 -191 160 -183 181 4 8 2 15 -3 15 -6 0 -10 7 -10 15 0 8 -4 15 -9 15 -5 0
-7 10 -3 22 4 17 2 20 -11 15 -26 -10 -42 55 -42 168 0 99 19 195 50 258 19
37 1 34 -28 -5 -55 -74 -74 -205 -54 -370 l8 -67 -28 3 c-37 4 -53 50 -60 173
-6 105 12 201 56 296 15 31 24 57 20 57 -14 0 -72 -75 -90 -116 -11 -23 -24
-77 -30 -120 -9 -68 -8 -92 12 -196 17 -90 20 -121 11 -130 -8 -8 -14 -4 -22
18 -25 68 -29 71 -29 19 l-1 -50 -21 32 c-27 43 -38 226 -19 340 18 116 49
225 69 248 10 11 24 30 30 43 10 18 9 22 -3 22 -32 0 -106 -165 -132 -294 -17
-81 -16 -125 2 -361 l7 -80 -39 45 c-41 46 -78 116 -69 130 3 5 0 12 -6 15
-15 10 -3 112 28 230 14 55 27 121 27 146 2 53 34 119 82 168 32 33 45 71 25
71 -11 0 -76 -101 -114 -177 -72 -142 -97 -373 -59 -557 35 -166 129 -334 261
-466 63 -64 93 -85 174 -123 54 -26 107 -56 119 -67 12 -10 25 -17 29 -14 4 2
10 0 13 -5 12 -20 -12 -20 -63 0 -242 91 -397 242 -522 504 -60 125 -79 215
-79 374 0 294 142 580 361 727 80 53 221 109 326 129 112 21 274 13 381 -19z
m162 -383 c38 -24 72 -67 45 -57 -11 5 -14 1 -9 -12 4 -11 -16 3 -45 31 -69
67 -66 84 9 38z m-1413 -125 c-3 -8 -6 -5 -6 6 -1 11 2 17 5 13 3 -3 4 -12 1
-19z m1218 -83 c61 -29 104 -74 139 -143 32 -64 39 -104 31 -171 -6 -51 -11
-60 -57 -103 -57 -52 -111 -71 -213 -72 -73 -1 -147 31 -214 93 -46 43 -61 49
-61 29 -1 -7 -7 -2 -15 12 -9 16 -14 55 -15 106 0 68 4 88 28 134 68 134 235
185 377 115z m339 -236 c15 -75 3 -139 -26 -139 -5 0 -7 38 -6 85 3 87 19 115
32 54z m-65 -174 c-14 -43 -67 -136 -97 -171 -26 -31 -163 -90 -147 -63 4 5
11 7 16 4 5 -4 9 -2 9 4 0 6 12 17 28 25 44 24 128 109 150 152 10 21 25 64
33 94 12 47 14 51 17 25 2 -16 -2 -48 -9 -70z m-312 -261 c-3 -3 -12 -4 -19
-1 -8 3 -5 6 6 6 11 1 17 -2 13 -5z m6802 -31 c25 -15 40 -28 34 -30 -13 -5
-143 52 -143 63 0 13 64 -6 109 -33z m-6861 20 c-16 -2 -40 -2 -55 0 -16 2 -3
4 27 4 30 0 43 -2 28 -4z m-118 -95 c52 -10 97 -22 100 -25 3 -3 -29 -3 -70 0
-80 6 -175 36 -212 68 -22 18 -21 18 32 -2 30 -11 98 -30 150 -41z m6740 -78
c0 -5 -4 -10 -10 -10 -5 0 -10 5 -10 10 0 6 5 10 10 10 6 0 10 -4 10 -10z
m-7252 -265 c4 -61 -5 -72 -34 -44 -28 27 -30 46 -6 70 27 28 37 22 40 -26z
m7157 -56 c68 -25 142 -95 181 -170 54 -104 30 -286 -45 -336 -57 -38 -88 -49
-143 -51 -31 -1 -79 -6 -105 -12 -58 -10 -146 0 -188 22 -38 21 -77 62 -105
113 -18 31 -24 60 -26 125 -2 47 -3 87 -4 90 0 3 -5 -2 -10 -10 -8 -12 -10
-11 -10 8 0 50 59 136 131 190 69 52 228 67 324 31z m-6972 -66 c17 -55 53
-247 83 -443 7 -52 16 -106 19 -118 12 -52 -16 -8 -35 56 -12 37 -27 77 -36
89 -27 42 -63 227 -79 406 -5 60 -4 67 13 67 13 0 22 -15 35 -57z m7304 -220
c-3 -10 -5 -2 -5 17 0 19 2 27 5 18 2 -10 2 -26 0 -35z m-8 -127 c-14 -69 -48
-145 -75 -167 -15 -11 -14 -8 3 16 32 47 50 97 65 182 7 43 15 67 16 54 2 -14
-2 -52 -9 -85z m71 83 c0 -6 9 -8 20 -4 18 6 20 3 15 -32 -14 -90 -37 -158
-71 -204 -35 -48 -60 -71 -30 -27 11 15 12 26 5 39 -11 22 10 202 27 231 8 12
34 10 34 -3z m-1856 -102 c25 -68 58 -102 132 -137 l66 -31 -52 -26 c-70 -35
-113 -80 -136 -142 -10 -28 -21 -51 -25 -51 -4 0 -15 22 -23 48 -26 77 -60
109 -149 141 l-79 27 80 37 c92 42 125 76 143 147 14 56 18 55 43 -13z m1072
-112 c13 -11 24 -25 24 -30 0 -5 -14 4 -31 21 -33 31 -59 75 -59 96 1 7 10 -5
22 -27 11 -22 32 -49 44 -60z m-826 3 c0 -5 -4 -8 -10 -8 -5 0 -10 10 -10 23
0 18 2 19 10 7 5 -8 10 -18 10 -22z m1560 -162 c0 -3 -4 -8 -10 -11 -5 -3 -10
-1 -10 4 0 6 5 11 10 11 6 0 10 -2 10 -4z m-240 -85 c21 -3 -37 -32 -83 -43
-63 -14 -98 25 -39 43 12 4 90 4 122 0z m-1332 -106 c20 -38 42 -83 49 -99
l13 -28 -27 18 c-59 38 -89 90 -98 165 -6 51 -5 53 10 34 9 -11 33 -51 53 -90z
m1457 76 c-3 -6 -11 -11 -17 -11 -6 0 -6 6 2 15 14 17 26 13 15 -4z m682 -165
c-5 -17 -14 -34 -19 -37 -5 -3 -11 -18 -14 -34 -8 -47 -34 -89 -47 -76 -7 7
-6 16 6 29 10 11 15 26 12 34 -7 19 22 87 40 95 8 3 15 15 15 27 0 16 2 18 9
7 5 -8 5 -26 -2 -45z m-2103 -86 l48 -61 -61 -58 c-56 -54 -61 -57 -61 -34 0
16 -15 40 -40 65 -45 46 -48 54 -20 63 11 4 34 24 52 46 17 21 32 39 33 39 1
0 23 -27 49 -60z m1988 -70 c-4 -25 -8 -29 -25 -24 -17 5 -19 3 -13 -22 4 -16
3 -24 -1 -18 -5 7 -16 8 -28 3 -11 -4 -14 -8 -7 -8 28 -2 -1 -21 -31 -21 l-32
0 60 60 c33 33 65 60 71 60 6 0 9 -13 6 -30z m-1507 -91 c6 -4 33 -13 60 -20
56 -14 102 -43 84 -54 -11 -7 -137 50 -174 79 l-20 16 20 -7 c11 -3 25 -10 30
-14z m1325 -49 c0 -5 -5 -10 -11 -10 -5 0 -7 5 -4 10 3 6 8 10 11 10 2 0 4 -4
4 -10z m-1138 -14 c7 4 8 2 4 -4 -11 -18 -26 -14 -25 6 0 10 3 12 6 4 2 -6 10
-9 15 -6z m44 -43 c-7 -7 -26 7 -26 19 0 6 6 6 15 -2 9 -7 13 -15 11 -17z m44
-3 c0 -5 -5 -10 -11 -10 -5 0 -7 5 -4 10 3 6 8 10 11 10 2 0 4 -4 4 -10z
m-6893 -359 c-59 -60 -107 -117 -107 -126 0 -13 4 -14 20 -5 11 6 24 19 30 29
5 11 25 27 42 37 89 47 163 82 167 78 2 -2 -35 -40 -82 -86 -114 -111 -149
-166 -198 -308 -15 -45 -23 -98 -27 -172 -4 -94 -2 -110 14 -131 19 -23 19
-23 16 84 -5 120 13 226 54 317 28 64 126 164 187 191 85 39 88 34 18 -36 -82
-83 -136 -164 -168 -249 -28 -80 -41 -215 -24 -267 15 -43 35 -50 27 -9 -15
78 -16 114 -6 175 15 99 44 165 95 224 43 49 155 133 178 133 6 0 -16 -26 -49
-57 -32 -32 -76 -87 -97 -123 -90 -155 -93 -288 -9 -455 29 -58 169 -202 227
-234 25 -14 31 -19 15 -15 -57 15 -95 41 -196 140 -59 58 -109 103 -111 100
-22 -22 66 -129 200 -244 27 -22 46 -46 42 -52 -8 -12 -72 30 -146 98 -30 27
-67 56 -84 65 -16 8 -43 29 -59 46 -40 41 -53 39 -26 -4 12 -19 19 -39 16 -44
-3 -5 2 -15 11 -22 14 -12 16 -12 8 0 -5 8 8 2 28 -13 20 -15 37 -31 39 -35 6
-16 134 -118 181 -146 59 -34 55 -45 -5 -14 -55 28 -115 69 -156 107 -55 52
-35 8 23 -49 55 -54 57 -69 8 -69 -13 0 -23 -5 -23 -10 0 -31 -111 74 -171
163 -22 31 -42 57 -45 57 -2 0 9 -24 25 -52 72 -128 224 -251 381 -309 47 -18
101 -38 120 -45 l35 -13 -46 -1 c-54 0 -164 36 -249 81 -177 94 -335 295 -401
509 -29 94 -31 274 -5 390 33 149 127 303 243 400 56 47 133 93 142 85 2 -3
-44 -54 -102 -114z m6953 13 c0 -2 -7 -4 -15 -4 -8 0 -15 4 -15 10 0 5 7 7 15
4 8 -4 15 -8 15 -10z m-140 -75 c0 -6 -12 -21 -27 -36 -30 -27 -103 -68 -103
-57 0 13 92 94 106 94 9 0 12 5 8 12 -4 7 -3 8 4 4 7 -4 12 -12 12 -17z
m-6540 -154 c-13 -14 -20 -25 -16 -25 4 0 -11 -21 -34 -47 -54 -62 -75 -104
-90 -181 -17 -86 -9 -157 27 -233 50 -108 121 -172 251 -225 66 -27 42 -32
-51 -10 -109 26 -228 131 -284 252 -25 52 -28 71 -28 160 0 115 2 120 110 251
19 23 109 81 129 82 5 1 -1 -10 -14 -24z m164 -116 c11 -18 13 -29 6 -24 -9 6
-10 3 -2 -11 6 -11 30 -32 55 -48 24 -17 56 -47 71 -68 39 -54 29 -96 -40
-165 -44 -44 -59 -53 -91 -55 -67 -3 -95 2 -121 22 -53 43 -34 -9 23 -59 20
-17 46 -31 58 -31 25 0 62 -20 38 -20 -38 0 -97 28 -135 64 -104 101 -116 244
-29 346 35 40 100 79 133 80 9 0 24 -14 34 -31z m1091 -49 c3 -5 1 -10 -4 -10
-6 0 -11 5 -11 10 0 6 2 10 4 10 3 0 8 -4 11 -10z m-1148 -636 c-3 -3 -12 -4
-19 -1 -8 3 -5 6 6 6 11 1 17 -2 13 -5z m7648 -520 c17 -7 45 -54 45 -77 0 -8
-16 -27 -35 -42 l-36 -27 -48 31 -48 31 41 45 c41 45 51 50 81 39z m-7685
-132 c0 -17 74 -93 106 -110 l35 -18 -46 -34 c-48 -36 -70 -63 -77 -95 -4 -16
-7 -13 -20 16 -16 37 -55 71 -95 83 -22 7 -32 26 -15 26 20 0 82 75 88 106 3
19 10 34 15 34 5 0 9 -4 9 -8z m5396 -868 c23 -23 69 -54 102 -70 l61 -28 -56
-32 c-77 -43 -128 -96 -161 -166 -30 -63 -42 -72 -42 -30 -1 77 -72 157 -172
194 -32 11 -58 22 -58 23 0 2 30 17 67 34 87 41 138 95 159 169 l17 57 21 -55
c12 -32 38 -72 62 -96z"/>
<path d="M2080 9264 c-117 -13 -318 -49 -328 -59 -9 -9 8 -52 44 -110 20 -33
78 -127 129 -210 50 -82 122 -199 159 -260 37 -60 79 -124 92 -142 13 -17 24
-34 24 -37 0 -2 -28 -14 -62 -25 -160 -54 -251 -189 -235 -347 17 -167 172
-258 355 -210 155 42 284 194 283 335 0 64 -16 110 -61 181 -15 25 -75 136
-133 247 -84 163 -101 203 -88 207 9 3 57 8 108 11 115 9 148 -1 208 -66 57
-61 96 -143 131 -274 34 -130 36 -133 63 -104 61 65 88 261 56 405 -27 123
-77 215 -165 304 -89 90 -168 133 -283 155 -92 17 -128 17 -297 -1z m336 -115
c104 -39 194 -118 255 -224 26 -45 55 -142 45 -152 -2 -2 -17 18 -34 44 -34
53 -109 114 -161 132 -53 17 -198 13 -307 -9 -54 -11 -102 -24 -106 -28 -5 -5
43 -110 107 -234 63 -124 115 -228 115 -232 0 -25 -62 69 -246 374 -52 85
-112 184 -134 219 -22 36 -40 68 -40 72 0 24 318 72 410 61 25 -2 68 -13 96
-23z m-101 -827 c25 -17 10 -78 -40 -160 -40 -67 -58 -86 -93 -103 -41 -20
-74 -21 -115 -4 -17 7 -17 6 -7 -11 21 -34 59 -55 108 -60 40 -5 58 0 122 32
100 51 98 50 71 21 -28 -31 -138 -77 -182 -77 -120 0 -187 84 -159 200 24 100
117 170 225 170 33 0 65 -4 70 -8z"/>
<path d="M7155 9235 c-191 -36 -341 -94 -505 -195 -100 -62 -250 -186 -250
-206 0 -15 45 -48 77 -58 18 -6 35 5 88 56 242 229 509 328 848 315 220 -8
378 -61 552 -187 218 -157 360 -363 428 -620 28 -106 30 -128 31 -290 l1 -175
-38 -120 c-75 -236 -223 -453 -359 -525 -70 -37 -68 -28 12 50 145 141 256
334 312 540 33 119 29 351 -7 462 -13 41 -14 41 -10 8 3 -19 8 -64 11 -100 3
-36 10 -69 15 -74 13 -14 11 -136 -2 -136 -6 0 -8 -7 -5 -16 3 -8 2 -12 -4 -9
-6 4 -10 -7 -10 -24 0 -16 -5 -33 -11 -37 -6 -3 -8 -18 -5 -33 5 -19 4 -22 -4
-11 -9 13 -10 13 -10 0 0 -8 -12 -28 -26 -45 -14 -16 -23 -24 -19 -17 3 6 1
12 -4 12 -6 0 -11 -13 -11 -30 0 -19 -5 -30 -14 -30 -11 0 -15 20 -18 88 -2
48 1 107 5 132 13 74 9 239 -7 325 -21 104 -46 171 -97 258 -51 85 -95 135
-173 196 -207 159 -293 196 -486 207 -102 7 -201 -3 -295 -29 -78 -21 -54 -23
47 -5 150 28 302 21 423 -19 119 -40 158 -60 251 -134 118 -94 132 -108 179
-179 105 -159 128 -237 129 -435 1 -138 -16 -218 -54 -260 -10 -11 -22 -32
-25 -47 -4 -16 -11 -28 -15 -28 -5 0 -11 -8 -13 -17 -3 -10 -5 -2 -6 17 -1 34
-1 34 -17 12 -8 -12 -22 -35 -31 -50 -17 -31 -15 -20 17 83 47 151 36 365 -24
483 -28 54 -85 136 -92 130 -2 -3 14 -45 37 -96 73 -166 84 -282 40 -437 -31
-114 -52 -165 -68 -165 -8 0 -12 -4 -8 -9 3 -6 -3 -15 -14 -20 -28 -15 -37 19
-16 59 88 170 91 404 8 550 -37 64 -79 116 -116 142 -30 21 -30 21 10 -33 141
-187 166 -390 72 -586 -62 -130 -221 -259 -277 -224 -10 6 2 17 41 39 57 32
121 101 156 167 25 48 61 185 61 231 0 153 -121 358 -250 424 -174 89 -403 58
-608 -82 l-44 -30 -19 21 c-19 20 -19 21 13 56 17 20 52 50 77 67 25 17 60 44
78 59 34 29 123 59 251 85 125 24 209 4 363 -87 67 -40 96 -46 69 -14 -26 32
-132 94 -197 116 -129 44 -261 28 -427 -52 -44 -22 -88 -39 -98 -39 -24 0 -60
-19 -154 -80 l-75 -49 42 -33 c23 -18 64 -62 92 -98 28 -36 54 -69 59 -75 5
-5 20 6 39 28 17 20 37 37 45 37 8 0 12 -4 9 -10 -3 -6 1 -7 10 -4 11 5 13 10
5 19 -23 28 69 83 174 105 116 24 228 -11 317 -100 76 -76 94 -123 94 -249 0
-75 -4 -106 -13 -109 -6 -2 -9 -8 -6 -14 5 -7 -2 -9 -20 -6 -18 4 -46 -4 -84
-23 -62 -31 -138 -38 -189 -18 -15 6 -45 11 -66 12 -21 0 -40 4 -43 8 -2 5
-11 6 -18 3 -14 -6 -56 44 -56 68 0 7 -12 24 -25 37 -14 13 -25 20 -25 17 0
-16 81 -309 90 -326 5 -10 10 -43 10 -73 0 -60 8 -71 75 -105 22 -11 49 -30
60 -42 10 -12 53 -45 95 -74 99 -70 205 -176 264 -264 26 -40 49 -72 52 -72 2
0 26 14 54 31 70 43 73 31 5 -20 l-56 -42 45 -82 c28 -51 54 -119 69 -181 14
-54 30 -103 37 -110 6 -6 57 -12 113 -14 90 -4 110 -1 155 18 100 43 182 159
425 600 17 30 31 56 32 58 1 1 64 -35 139 -80 76 -46 160 -96 188 -112 l50
-29 -6 -46 c-12 -94 -30 -151 -55 -182 l-26 -31 -53 35 c-147 100 -362 54
-435 -94 -51 -101 -30 -196 61 -281 71 -67 110 -81 207 -76 122 7 187 44 365
213 61 57 181 258 220 370 28 79 33 103 34 201 1 80 -3 118 -13 138 -38 71
-581 476 -638 476 -23 0 -59 -45 -108 -135 -20 -38 -49 -90 -64 -115 -14 -25
-71 -133 -127 -240 -55 -107 -107 -196 -115 -198 -8 -1 -36 11 -63 29 l-49 31
46 39 c25 22 60 65 78 97 17 31 45 80 61 108 38 69 97 241 114 334 18 99 17
301 -1 420 -39 256 -167 493 -371 690 -105 101 -147 131 -272 194 -143 73
-288 107 -482 112 -110 2 -178 -1 -235 -11z m1711 -1550 c165 -104 385 -279
409 -326 19 -36 19 -157 1 -226 -27 -102 -78 -191 -118 -206 -10 -3 -20 -19
-23 -34 -12 -57 -75 -156 -90 -142 -2 3 15 43 39 89 62 119 89 216 90 319 1
74 -1 85 -19 95 -11 6 -48 30 -83 54 -34 24 -117 75 -185 113 -67 39 -131 79
-143 90 -11 10 -27 19 -35 19 -13 0 -63 -74 -240 -353 -41 -64 -82 -127 -92
-140 -17 -21 -17 -21 -2 18 9 22 40 81 69 130 29 50 90 158 135 240 92 166
182 315 192 315 4 0 46 -25 95 -55z m-966 -264 c0 -12 -109 -95 -116 -88 -6 6
42 51 83 78 34 21 33 21 33 10z m264 -292 c39 -11 126 -87 126 -111 0 -7 7
-26 15 -42 9 -16 13 -37 10 -47 -5 -15 -10 -16 -31 -7 -19 9 -36 9 -70 0 -24
-7 -73 -12 -109 -12 -60 0 -68 3 -104 35 -21 19 -46 35 -55 35 -22 0 -20 16 9
67 25 41 60 67 115 84 36 11 50 10 94 -2z m720 -278 c41 -26 56 -58 56 -121 0
-39 -5 -55 -26 -77 -20 -22 -24 -23 -19 -8 4 11 10 31 13 44 4 21 2 23 -14 17
-29 -12 -138 -19 -178 -12 -20 4 -49 21 -67 39 l-32 32 6 -35 c4 -19 15 -43
25 -55 9 -11 23 -31 30 -45 9 -17 1 -12 -27 17 -35 36 -41 48 -41 86 0 38 6
50 38 84 21 21 54 44 73 51 46 15 123 7 163 -17z m-794 -34 c15 -2 6 -5 -21
-6 -26 0 -54 5 -65 13 -17 13 -15 14 21 6 22 -5 51 -10 65 -13z m83 6 c-7 -2
-21 -2 -30 0 -10 3 -4 5 12 5 17 0 24 -2 18 -5z"/>
<path d="M4945 9053 c-212 -13 -467 -72 -687 -159 -170 -67 -191 -77 -330
-161 -333 -199 -577 -457 -762 -804 -67 -126 -94 -200 -102 -283 -5 -55 -3
-65 20 -99 31 -45 32 -58 7 -81 -10 -10 -24 -37 -30 -61 -15 -61 -13 -202 4
-250 8 -22 15 -43 15 -46 0 -4 -25 -26 -56 -49 -215 -162 -340 -402 -373 -720
-18 -172 9 -391 59 -472 11 -18 20 -43 20 -56 0 -22 -4 -21 -92 27 -139 74
-239 103 -378 109 -69 2 -138 0 -172 -7 -116 -24 -294 -131 -373 -224 -41 -48
-108 -164 -130 -226 -26 -74 -37 -202 -25 -297 20 -156 48 -217 215 -462 48
-69 114 -112 265 -171 138 -54 205 -67 409 -77 76 -3 149 -12 167 -20 l33 -14
-16 -37 c-23 -56 -13 -181 21 -257 34 -77 104 -174 162 -225 50 -44 172 -118
244 -149 140 -60 619 -129 795 -116 l82 7 42 -56 c49 -67 65 -77 123 -77 61 0
76 12 55 42 -9 12 -25 34 -34 48 -59 86 -266 310 -287 310 -18 0 -176 153
-182 175 -6 25 3 65 14 65 14 0 423 -414 482 -488 103 -129 96 -122 132 -115
18 3 35 7 36 9 2 1 -15 28 -38 59 -23 31 -40 58 -38 59 1 1 25 10 51 20 69 26
77 20 77 -64 l0 -70 61 0 62 0 -7 33 c-18 86 -26 296 -16 406 23 271 150 664
239 745 17 16 26 17 73 7 29 -7 125 -16 213 -22 88 -5 201 -18 250 -29 50 -10
128 -27 175 -37 47 -9 86 -18 87 -18 12 -6 30 -200 23 -250 -4 -33 -8 -48 -9
-32 0 15 -6 27 -11 27 -6 0 -8 -10 -5 -23 5 -17 2 -24 -9 -24 -9 0 -16 6 -16
14 0 7 -3 13 -6 13 -10 0 -34 -28 -34 -39 0 -6 -7 -11 -15 -11 -8 0 -15 5 -15
11 0 8 -6 7 -16 -2 -13 -11 -15 -25 -10 -74 13 -135 -30 -259 -124 -356 -166
-170 -437 -181 -594 -24 -50 50 -109 136 -123 180 -5 17 -14 28 -19 25 -19
-10 -9 -276 16 -430 l12 -75 434 2 c477 2 447 6 455 -57 l4 -25 -365 -1 c-352
-1 -814 -23 -945 -44 -33 -6 -103 -14 -155 -19 -84 -8 -363 -43 -445 -56 -289
-44 -707 -123 -960 -182 l-200 -46 -27 -161 c-29 -170 -44 -236 -56 -236 -4 0
-31 74 -60 165 -47 148 -55 165 -75 165 -31 0 -285 -71 -437 -122 -69 -23
-132 -43 -140 -45 -9 -3 -10 -7 -4 -11 18 -12 104 -123 129 -167 l25 -42 1
-786 1 -787 53 -35 c82 -54 194 -105 213 -96 82 36 239 115 262 131 27 19 29
26 32 98 3 76 3 77 31 80 16 2 68 -10 116 -27 48 -17 96 -31 106 -31 10 0 92
26 181 57 115 41 164 63 167 76 3 9 13 17 24 17 10 0 63 15 118 34 55 18 115
37 133 40 36 8 52 31 52 71 0 26 1 27 23 13 67 -44 55 -44 213 -5 82 20 185
43 229 51 147 27 220 47 231 62 9 11 17 12 40 4 22 -9 64 -7 173 6 l144 17 20
-27 c39 -55 140 -86 342 -106 62 -6 113 -17 117 -23 6 -9 8 -9 8 1 0 6 5 12
11 12 5 0 8 -4 5 -9 -7 -10 83 -18 157 -13 26 2 47 7 47 12 0 5 -7 6 -17 3
-10 -4 -14 -2 -10 4 4 5 53 14 109 18 167 13 202 14 220 4 22 -12 127 3 269
38 73 18 115 24 135 18 29 -7 28 -8 -33 -37 -56 -26 -140 -50 -393 -108 -216
-49 -591 -52 -815 -6 -66 14 -147 34 -180 45 -33 11 -67 21 -75 21 -8 0 -28 8
-45 17 -22 12 -63 18 -148 21 -133 5 -187 -2 -187 -23 0 -11 -11 -15 -37 -15
-21 0 -90 -17 -153 -37 l-115 -38 55 -8 c30 -4 102 -23 160 -43 58 -20 149
-52 203 -71 455 -157 1013 -184 1507 -72 137 31 344 106 475 172 82 41 233
145 252 174 14 21 23 23 92 24 105 0 167 12 201 37 16 12 31 22 34 22 2 0 7
-18 11 -39 6 -37 10 -41 53 -55 51 -16 251 -56 283 -56 11 0 42 20 68 45 l48
45 34 -67 c40 -78 75 -102 236 -159 136 -49 152 -48 253 13 47 28 87 50 89 48
2 -2 7 -36 11 -75 6 -59 13 -77 36 -101 43 -45 411 -219 464 -219 23 0 61 20
142 77 60 42 122 92 138 110 51 58 55 89 55 443 l0 325 -28 60 c-21 45 -52 83
-120 148 -71 69 -88 90 -77 97 22 13 148 111 184 141 l30 27 -12 210 c-7 116
-16 222 -21 235 -11 27 -92 63 -341 150 -127 45 -155 51 -231 52 -72 1 -91 5
-114 23 -33 26 -52 32 -285 82 -200 43 -419 80 -765 131 -121 17 -224 35 -228
39 -4 4 43 55 106 113 186 174 281 341 294 519 6 82 -9 182 -34 233 -44 86
-179 220 -326 320 -50 35 -60 48 -79 99 -41 111 -122 197 -245 260 -18 9 -33
20 -33 24 0 5 35 31 77 58 110 71 172 121 284 228 l98 95 54 -24 c81 -38 156
-48 292 -41 132 6 272 37 358 80 126 61 325 213 404 306 60 72 135 216 183
354 99 287 78 608 -62 920 -69 155 -119 220 -242 314 -34 25 -90 73 -126 106
-47 44 -87 70 -146 96 l-81 34 5 61 c7 92 -11 160 -64 236 -39 57 -44 70 -35
87 6 12 11 30 11 42 0 33 -55 132 -125 225 -313 416 -754 686 -1338 820 -154
35 -457 52 -682 38z m495 -127 c375 -52 735 -189 995 -379 74 -55 227 -188
222 -193 -10 -10 -76 20 -106 49 -43 40 -137 98 -145 90 -3 -4 -6 -1 -6 5 0 7
-5 12 -12 12 -9 0 -9 -3 0 -12 7 -7 12 -22 12 -35 0 -13 5 -22 13 -20 7 1 13
-11 15 -28 2 -16 1 -27 -3 -23 -4 3 -16 -3 -27 -14 -12 -12 -23 -16 -27 -11
-8 13 -39 29 -73 37 -22 5 -26 3 -22 -9 4 -8 13 -15 20 -15 24 0 11 -52 -14
-61 -17 -6 -30 -2 -55 19 -17 16 -48 39 -67 52 -19 14 -46 34 -59 47 -13 12
-39 30 -58 40 -18 10 -32 22 -30 28 3 6 -18 11 -50 12 -29 0 -64 8 -77 16 -20
13 -92 38 -329 113 -173 55 -626 47 -902 -15 -337 -76 -528 -152 -738 -294
-40 -27 -99 -66 -132 -88 -34 -22 -75 -60 -95 -88 -19 -27 -50 -57 -68 -67
-42 -22 -104 -82 -121 -116 -8 -15 -18 -25 -23 -22 -4 3 -8 -4 -8 -15 0 -18
-3 -18 -37 -9 -38 10 -67 28 -46 28 6 0 16 15 22 32 20 57 -12 14 -86 -117
-84 -147 -103 -186 -110 -230 -5 -32 -4 -34 31 -39 89 -14 110 -20 94 -23 -10
-3 -18 -9 -18 -14 0 -12 -56 -11 -102 2 -37 10 -38 11 -38 55 0 98 113 329
255 520 83 112 293 317 405 396 276 195 649 342 995 392 42 6 551 -1 605 -8z
m-162 -584 l53 -7 -61 -45 c-41 -31 -80 -73 -121 -133 -54 -79 -119 -201 -119
-226 0 -5 -10 -31 -22 -58 -12 -26 -22 -52 -23 -58 0 -5 -3 -14 -6 -20 -9 -14
-23 -68 -20 -78 1 -5 -3 -6 -9 -2 -5 3 -13 -2 -17 -12 -11 -31 -54 -63 -79
-59 -13 3 -24 1 -24 -3 0 -5 -15 -11 -32 -15 -26 -5 -30 -9 -18 -16 11 -7 4
-10 -26 -10 -27 0 -47 -6 -58 -19 -12 -14 -30 -19 -59 -18 -23 0 -57 -7 -76
-17 -18 -10 -42 -16 -52 -13 -11 3 -19 1 -19 -5 0 -6 -7 -8 -15 -5 -8 4 -17 3
-19 -2 -5 -7 -114 -6 -146 1 -21 4 -42 -146 -36 -252 6 -85 6 -85 -14 -62 -10
13 -22 44 -26 70 -9 62 13 360 37 492 20 114 93 366 112 389 26 31 261 122
392 152 141 31 379 46 503 31z m330 -94 c-3 -7 -21 -17 -40 -23 -39 -11 -60
-25 -38 -25 33 0 324 -159 426 -232 111 -80 169 -138 145 -146 -26 -9 -105
-68 -119 -90 -14 -22 -11 -21 44 9 l59 31 -35 -33 c-82 -79 -129 -182 -115
-252 18 -79 89 -171 167 -213 29 -16 158 -119 158 -126 0 -16 -24 -7 -69 26
-25 18 -81 54 -123 79 -77 45 -78 46 -84 23 -3 -13 -1 -83 5 -156 6 -74 11
-138 11 -142 0 -19 -40 -5 -105 38 -117 76 -184 104 -265 113 -163 17 -330
-18 -440 -92 -119 -80 -224 -207 -255 -307 -7 -22 -6 -23 8 -8 9 8 22 31 31
52 8 20 20 36 26 36 6 0 8 5 5 10 -8 13 71 120 88 120 7 0 28 16 47 35 19 20
51 41 72 47 21 6 38 15 38 19 0 4 9 6 19 4 11 -2 30 5 42 16 17 15 24 17 31 7
7 -12 12 -4 9 14 0 4 9 4 21 -1 12 -4 40 -4 63 1 58 14 259 9 300 -6 103 -39
160 -79 256 -177 52 -54 140 -202 127 -214 -3 -3 -27 28 -53 70 -121 195 -320
315 -523 315 -39 0 -95 -5 -124 -11 -83 -18 -223 -88 -283 -141 -30 -28 -52
-37 -40 -18 3 6 2 10 -4 10 -14 0 -29 -32 -23 -50 2 -8 1 -12 -3 -8 -9 9 -37
-40 -30 -52 3 -5 -4 -11 -15 -15 -11 -4 -20 -12 -19 -18 1 -7 -5 -29 -15 -50
-33 -75 -56 -199 -56 -307 0 -196 63 -363 180 -481 178 -180 371 -242 586
-189 49 12 116 36 149 53 110 57 231 201 277 330 l18 52 -4 -61 c-3 -41 -13
-80 -34 -122 -59 -118 -127 -191 -259 -277 -46 -30 -54 -40 -25 -33 16 5 18 1
13 -31 -6 -32 -12 -38 -61 -58 -30 -12 -65 -23 -76 -23 -13 0 -24 -8 -27 -20
-3 -12 -14 -20 -25 -20 -15 0 -19 -5 -15 -18 4 -16 -1 -19 -26 -17 -31 2 -31
2 -11 -17 26 -24 26 -42 0 -26 -11 7 -20 16 -20 21 0 4 -5 5 -10 2 -6 -4 -4
-12 5 -21 27 -28 14 -48 -14 -21 -11 10 -13 9 -8 -5 4 -12 2 -15 -9 -11 -16 6
-18 15 -4 29 6 6 2 14 -13 23 -20 13 -21 13 -9 -2 10 -11 11 -21 3 -35 -6 -11
-8 -21 -6 -24 3 -3 -1 -5 -9 -5 -8 0 -14 3 -13 6 1 3 -2 6 -8 6 -5 0 -9 -4 -7
-10 2 -5 0 -7 -4 -2 -4 4 -17 0 -30 -8 -20 -13 -23 -12 -28 1 -5 12 -2 15 9
10 11 -4 14 -2 9 6 -5 8 -2 9 10 5 10 -4 15 -3 11 3 -3 6 -1 10 6 10 7 0 10 3
7 6 -3 3 -26 -5 -52 -18 -34 -17 -44 -27 -40 -41 3 -11 1 -16 -7 -15 -19 4
-23 -34 -5 -44 23 -13 20 -27 -4 -21 -11 3 -18 9 -15 13 3 5 1 11 -4 15 -6 3
-7 13 -4 21 5 14 1 15 -28 9 -33 -7 -65 -33 -53 -44 3 -3 9 1 14 9 5 8 12 11
16 7 12 -12 -3 -20 -51 -27 -35 -5 -45 -4 -45 7 0 12 -3 12 -16 -1 -17 -18
-49 -22 -39 -6 4 7 -4 9 -22 5 -31 -6 -192 -18 -235 -18 -15 0 -26 -3 -24 -6
2 -3 -9 -6 -25 -6 -16 0 -29 4 -29 9 0 5 -10 1 -22 -10 -12 -10 -18 -14 -15
-8 8 14 -41 16 -49 3 -3 -5 -14 -9 -25 -9 -11 0 -19 -7 -20 -17 0 -11 -3 -13
-6 -5 -2 6 -9 12 -14 12 -6 0 -7 -5 -3 -12 4 -6 3 -8 -4 -4 -5 3 -12 1 -14 -5
-3 -9 -12 -9 -33 -1 -23 8 -25 11 -10 11 15 1 17 4 7 10 -8 5 -28 1 -50 -11
-20 -10 -38 -14 -40 -10 -1 5 -15 7 -29 4 -21 -4 -25 -2 -20 12 4 9 2 16 -3
16 -6 0 -10 -4 -10 -10 0 -11 -16 -6 -79 22 -25 11 -53 21 -63 23 -10 2 -30
11 -45 19 -29 16 -227 94 -311 122 -26 9 -69 32 -97 51 -59 41 168 -183 250
-246 167 -131 445 -243 695 -282 254 -39 512 -30 683 23 73 22 79 24 132 32
30 5 161 48 200 66 11 5 52 22 90 37 81 34 225 126 273 176 l34 35 -48 7 c-57
8 -130 43 -160 77 -44 47 -97 194 -64 173 6 -4 21 -27 34 -53 31 -61 88 -118
151 -149 73 -38 103 -44 150 -32 23 6 55 9 70 7 28 -3 26 -5 -41 -59 -147
-118 -387 -262 -519 -312 -263 -99 -582 -137 -871 -103 -164 19 -216 31 -374
87 -239 85 -418 186 -588 331 -288 246 -449 537 -516 935 -75 444 49 965 323
1347 74 104 226 276 310 350 69 61 199 151 207 143 2 -2 -9 -42 -25 -88 -66
-186 -104 -419 -99 -611 3 -128 6 -148 27 -191 34 -65 97 -127 167 -162 57
-29 64 -30 194 -30 209 1 337 45 447 152 75 73 108 149 128 293 32 233 109
478 186 597 56 85 155 175 222 201 61 23 111 28 105 10z m1338 -234 c9 -35 -7
-47 -64 -50 -40 -2 -129 -23 -180 -41 -8 -4 -10 0 -6 11 3 9 14 16 24 16 11 0
21 4 24 8 3 5 39 17 81 27 50 11 81 24 88 36 16 26 25 24 33 -7z m-731 -94 c3
-5 1 -10 -4 -10 -6 0 -11 5 -11 10 0 6 2 10 4 10 3 0 8 -4 11 -10z m783 -94
c37 -42 72 -133 72 -186 0 -45 -20 -70 -58 -70 -15 0 -51 -3 -79 -6 -43 -6
-53 -4 -53 8 0 8 -13 39 -30 69 -47 87 -82 189 -68 194 33 10 107 23 144 24
36 1 46 -4 72 -33z m-758 -135 c-8 -5 -28 -11 -45 -15 -29 -7 -29 -7 -10 8 11
8 31 15 45 15 19 0 21 -2 10 -8z m-3 -31 c30 -11 30 -11 31 -91 1 -67 -2 -83
-19 -100 -19 -19 -53 -24 -84 -13 -21 8 -45 56 -45 89 0 30 26 85 40 85 6 0
10 6 10 14 0 13 13 23 31 25 3 1 19 -4 36 -9z m-179 -75 c-6 -14 -13 -23 -15
-21 -5 5 15 46 22 46 3 0 -1 -11 -7 -25z m-1426 -122 c35 -34 37 -75 4 -108
-13 -13 -37 -27 -52 -31 -23 -6 -32 -2 -56 25 -30 34 -35 60 -16 94 28 53 77
61 120 20z m2254 -65 c-76 -76 -140 -173 -189 -288 -50 -119 -72 -203 -98
-367 -13 -79 -26 -138 -29 -132 -4 6 -41 10 -91 9 -103 -2 -149 13 -149 50 0
14 5 41 10 60 6 19 15 67 21 105 6 39 18 84 27 100 9 17 17 39 19 50 15 87 55
175 81 175 11 0 13 3 5 8 -13 8 3 63 30 102 30 43 130 141 159 156 28 15 134
30 221 33 l47 1 -64 -62z m-3583 46 c36 -6 37 -8 36 -48 -1 -56 -26 -219 -28
-181 -1 26 -20 74 -21 52 0 -4 -9 -3 -19 2 -14 8 -20 7 -25 -4 -3 -8 -15 -15
-26 -15 -26 0 -25 -11 5 -44 20 -22 22 -28 10 -32 -48 -19 -97 103 -76 183 23
84 52 102 144 87z m3847 -40 c-14 -3 -44 -7 -66 -10 -64 -8 -129 -57 -183
-138 -95 -143 -153 -302 -191 -529 -32 -188 -37 -207 -52 -207 -7 0 -9 28 -4
88 21 261 70 445 159 596 92 153 168 206 292 204 39 0 59 -2 45 -4z m-633 -66
c-61 -82 -154 -309 -190 -463 -43 -188 -52 -275 -51 -520 0 -216 -1 -236 -13
-195 -27 88 -35 201 -30 398 4 167 8 214 31 307 49 205 135 384 234 488 42 44
55 33 19 -15z m-213 -18 c24 0 27 -2 16 -15 -18 -21 -60 -19 -95 6 l-30 21 40
-6 c22 -3 53 -6 69 -6z m1100 -84 c52 -22 49 -32 -7 -33 -194 -3 -369 -264
-411 -613 -6 -50 -8 -331 -3 -370 2 -14 -1 -32 -6 -41 -9 -14 -13 -13 -34 10
-13 14 -22 22 -21 16 1 -5 -6 -26 -17 -45 l-18 -35 -13 30 c-37 87 -49 178
-49 385 0 186 2 213 24 290 32 113 64 177 126 253 55 67 124 117 202 147 58
23 179 26 227 6z m-84 -111 c0 -2 -10 -9 -22 -15 -22 -11 -22 -10 -4 4 21 17
26 19 26 11z m255 -33 c-3 -3 -11 0 -18 7 -9 10 -8 11 6 5 10 -3 15 -9 12 -12z
m-385 -77 c-66 -82 -92 -138 -131 -273 -28 -97 -31 -121 -32 -257 -1 -113 3
-171 17 -235 18 -81 60 -214 76 -235 4 -5 10 -19 14 -30 15 -47 -30 27 -63
102 -19 43 -41 94 -50 113 -13 29 -16 73 -15 245 l0 210 37 110 c47 139 113
263 157 293 18 12 35 22 37 22 3 0 -19 -29 -47 -65z m-3800 50 c0 -3 -7 -22
-15 -42 -9 -21 -23 -69 -31 -108 -23 -99 -31 -109 -113 -130 -38 -10 -68 -22
-66 -25 3 -4 37 -5 76 -2 l72 5 -7 -39 c-3 -21 -9 -58 -12 -81 -7 -42 -7 -43
-48 -44 -22 0 -60 0 -84 1 -40 1 -92 -20 -92 -38 0 -4 51 -7 112 -7 82 0 112
-3 111 -12 -2 -6 -6 -62 -9 -123 -8 -124 1 -113 -104 -125 -85 -9 -100 -15
-100 -37 0 -16 5 -18 33 -13 17 3 62 9 99 13 l66 8 6 -29 c3 -16 5 -44 5 -61
-1 -25 -4 -20 -15 24 l-13 55 2 -95 2 -94 -75 -16 -75 -15 87 -3 c63 -2 88 -7
92 -17 6 -17 -14 -24 -104 -39 l-65 -11 -1 -36 c-1 -20 9 -68 20 -105 l22 -69
94 0 c62 0 95 -4 97 -12 4 -12 -21 -19 -114 -28 -49 -6 -63 -11 -63 -23 -1
-26 -29 43 -62 148 -47 154 -68 329 -68 566 0 183 3 215 25 310 28 117 76 220
135 286 30 34 47 45 91 54 64 13 89 16 89 9z m4155 -61 c207 -98 306 -467 214
-804 -43 -158 -134 -263 -255 -295 -94 -24 -175 12 -249 112 -47 65 -44 71 9
19 58 -59 116 -94 165 -102 56 -9 85 12 108 78 18 51 54 96 106 131 57 38 106
178 114 329 7 124 -3 174 -54 261 -18 32 -33 62 -33 68 0 12 -13 12 -25 0 -6
-6 -26 -2 -53 10 -108 50 -244 -39 -289 -190 -18 -60 -24 -243 -10 -294 5 -18
4 -26 -2 -23 -5 4 -12 -3 -16 -14 -9 -28 -21 -25 -47 10 -27 37 -36 38 -49 3
-9 -24 -11 -25 -26 -11 -55 56 -38 430 25 554 35 69 98 140 144 162 62 32 152
30 223 -4z m-748 -86 c-3 -8 -6 -5 -6 6 -1 11 2 17 5 13 3 -3 4 -12 1 -19z
m-3783 -65 c-14 -38 -42 -138 -61 -223 -35 -153 -36 -159 -37 -387 -1 -217 -2
-230 -18 -222 -10 5 -18 13 -18 18 0 4 -11 13 -24 20 -29 16 -56 117 -57 217
-1 60 -2 65 -11 39 -5 -17 -7 -93 -5 -175 3 -80 2 -134 -3 -120 -4 14 -8 99
-9 190 -1 168 14 292 43 348 7 15 21 52 31 82 25 79 59 135 129 212 34 36 62
67 63 67 1 1 -9 -29 -23 -66z m2749 34 c63 -48 88 -90 94 -157 14 -147 -94
-252 -242 -237 -110 11 -186 82 -200 188 -6 42 -3 58 19 102 48 99 116 140
222 135 59 -3 77 -8 107 -31z m1803 -274 c34 -37 51 -71 64 -127 9 -40 7 -52
-10 -84 -36 -68 -76 -102 -120 -102 -16 0 -27 14 -47 56 -23 50 -25 65 -20
128 8 89 22 131 50 144 36 17 56 14 83 -15z m-199 -45 c-3 -7 -5 -2 -5 12 0
14 2 19 5 13 2 -7 2 -19 0 -25z m-790 -98 c1 -58 5 -146 9 -197 9 -119 5 -123
-108 -123 -46 0 -88 4 -94 8 -18 12 -44 103 -44 154 l0 48 38 1 37 2 -40 6
-40 6 -3 103 -3 103 123 -3 123 -3 2 -105z m-779 -40 c18 -11 37 -31 42 -44
18 -49 -14 -106 -61 -106 -89 0 -130 91 -67 150 27 25 44 25 86 0z m-267 -88
c26 -23 32 -36 32 -68 0 -48 2 -48 99 -27 37 8 84 13 105 11 33 -3 38 -7 41
-29 4 -38 -49 -80 -138 -109 -67 -22 -78 -22 -134 -11 -90 19 -185 96 -186
152 0 38 86 109 132 109 10 0 32 -13 49 -28z m2139 -78 c0 -26 -56 -74 -87
-74 -26 0 -25 1 15 21 24 12 49 33 54 45 13 28 18 30 18 8z m-2600 -20 c0 -8
4 -14 9 -14 5 0 14 -13 20 -29 15 -35 217 -168 324 -214 166 -70 314 -41 491
96 89 69 100 75 111 60 34 -46 -72 -189 -190 -259 -56 -32 -184 -64 -261 -64
-122 0 -285 72 -381 168 -27 27 -62 77 -80 112 -35 71 -68 174 -53 165 6 -4
10 -13 10 -21z m1225 -170 c9 -50 1 -52 -12 -4 -5 22 -7 40 -3 40 4 0 11 -16
15 -36z m313 10 c2 -12 -3 -21 -10 -21 -7 0 -57 -3 -110 -7 -67 -5 -98 -4 -99
3 -1 6 -2 17 -3 24 -1 8 23 14 74 18 119 9 145 6 148 -17z m9 -56 c-3 -8 -6
-5 -6 6 -1 11 2 17 5 13 3 -3 4 -12 1 -19z m30 -100 c-3 -8 -6 -5 -6 6 -1 11
2 17 5 13 3 -3 4 -12 1 -19z m673 -112 c72 -33 140 -34 209 -3 27 13 57 30 66
37 25 21 29 3 5 -29 -32 -45 -77 -77 -160 -111 -86 -36 -157 -39 -210 -10
l-35 19 85 -2 c104 -2 125 7 78 35 -52 32 -139 100 -133 106 3 3 -1 12 -7 21
-7 9 1 4 17 -11 17 -15 55 -38 85 -52z m-641 27 c9 -24 9 -25 -2 -11 -8 10
-18 13 -28 8 -24 -14 -153 -22 -169 -11 -22 15 -7 23 57 31 114 15 129 13 142
-17z m-4269 -23 c86 -29 177 -78 201 -108 21 -27 24 -57 10 -96 -8 -19 -15
-23 -32 -19 -19 5 -21 11 -16 54 7 56 3 60 -68 71 -27 4 -81 15 -120 26 -65
18 -112 19 -86 2 6 -3 12 -24 14 -46 l2 -39 -110 0 -110 0 -6 40 -6 40 -2 -37
c0 -20 -6 -40 -11 -43 -8 -5 -8 -11 0 -19 6 -9 8 -46 3 -106 l-6 -92 -41 6
c-22 4 -41 8 -42 9 -1 1 -4 18 -6 37 -3 33 -1 35 35 41 53 9 58 19 9 19 l-42
0 0 45 0 45 38 0 c31 1 34 2 19 11 -10 6 -35 8 -55 5 -21 -3 -54 -7 -74 -9
-51 -6 -68 -22 -68 -68 0 -37 -1 -38 -37 -41 -32 -3 -40 -8 -55 -39 -22 -46
-58 -188 -58 -227 0 -49 55 -218 90 -276 24 -38 45 -60 72 -72 39 -18 52 -49
24 -60 -43 -16 -127 76 -178 194 -32 75 -33 81 -33 212 1 157 13 198 95 324
69 105 193 192 333 231 73 21 232 13 317 -15z m517 -142 c21 -42 33 -72 26
-66 -25 20 -93 170 -92 202 0 29 1 28 15 -14 7 -25 31 -80 51 -122z m3549 0
c21 -35 72 -96 114 -137 73 -73 74 -74 30 -50 -64 34 -140 113 -183 190 -20
36 -37 69 -37 73 0 21 44 -22 76 -76z m-4054 46 c4 -3 8 -23 8 -45 0 -43 -4
-45 -62 -28 -36 9 -38 12 -38 51 l0 41 42 -7 c22 -4 45 -9 50 -12z m116 -36
c6 -6 12 -24 12 -41 0 -29 -1 -29 -37 -23 -21 3 -44 6 -50 6 -8 0 -13 15 -13
41 l0 41 38 -7 c20 -4 43 -11 50 -17z m236 -39 c42 -46 42 -46 0 -179 -38
-120 -158 -310 -195 -310 -12 0 -17 4 -14 11 11 16 -56 7 -79 -11 -10 -8 -57
-48 -103 -87 -46 -40 -87 -73 -90 -73 -3 0 31 39 76 86 153 161 257 327 321
512 18 51 36 92 40 92 4 0 24 -18 44 -41z m4269 -55 c48 -32 107 -43 170 -31
62 11 78 5 46 -16 -65 -43 -174 -39 -247 7 -44 29 -121 106 -105 106 7 0 15
-4 18 -10 3 -5 13 -10 22 -10 13 0 14 2 2 18 -8 9 2 5 21 -11 19 -15 52 -39
73 -53z m-4845 9 l3 -43 -55 0 -56 0 0 46 0 45 53 -3 52 -3 3 -42z m120 -6 l3
-48 -53 3 -53 3 -3 48 -3 48 53 -3 53 -3 3 -48z m-358 3 l0 -40 -50 0 c-46 0
-50 2 -50 24 0 34 26 56 66 56 33 0 34 -1 34 -40z m468 24 c7 -2 12 -20 12
-44 0 -44 -9 -48 -79 -34 -28 6 -31 10 -31 44 0 20 3 39 6 43 5 5 64 0 92 -9z
m112 -29 c6 -8 10 -26 8 -42 -2 -24 -8 -28 -36 -31 -18 -2 -40 2 -48 9 -13 11
-20 70 -9 80 9 10 74 -3 85 -16z m53 -21 c8 -8 -13 -64 -24 -64 -10 0 -12 53
-2 63 8 9 18 9 26 1z m4391 -97 c10 -4 17 -10 14 -12 -2 -2 -60 -10 -128 -16
l-124 -11 -35 38 -36 39 80 11 c52 7 82 16 89 27 8 13 18 9 65 -27 31 -23 65
-46 75 -49z m-3690 11 c51 -82 100 -136 163 -179 70 -48 108 -61 151 -50 27 7
61 5 127 -8 86 -16 89 -18 65 -31 -33 -18 -181 -17 -235 2 -130 47 -285 200
-320 316 -11 38 2 25 49 -50z m2416 68 c0 -3 -4 -8 -10 -11 -5 -3 -10 -1 -10
4 0 6 5 11 10 11 6 0 10 -2 10 -4z m-3880 -26 c12 0 10 -79 -2 -86 -5 -3 -20
-3 -34 0 -19 5 -24 13 -24 39 0 37 17 60 38 52 8 -3 17 -5 22 -5z m124 -7 c-1
-7 -2 -26 -2 -43 -2 -29 -4 -30 -47 -30 l-45 0 0 39 c0 36 3 40 28 44 43 7 67
3 66 -10z m241 -28 l0 -40 -44 -3 c-48 -4 -61 6 -61 49 0 36 8 40 60 37 l45
-3 0 -40z m123 -7 c3 -47 3 -48 -27 -48 -57 0 -81 16 -81 53 0 44 6 48 60 45
l45 -3 3 -47z m85 36 c36 -7 37 -7 37 -52 l0 -45 -47 7 c-25 3 -47 7 -48 9 -1
1 -5 21 -9 45 -7 47 -6 47 67 36z m4010 -34 c-41 -37 -86 -45 -159 -29 l-59
14 45 3 c25 1 54 7 65 12 30 14 86 28 115 29 25 0 25 0 -7 -29z m-3885 -1 c26
-10 27 -18 8 -64 -18 -41 -22 -42 -57 -12 -23 19 -26 28 -22 60 6 40 6 40 71
16z m3123 -6 c-12 -20 -14 -14 -5 12 4 9 9 14 11 11 3 -2 0 -13 -6 -23z
m-2726 -96 c9 -29 19 -93 22 -144 3 -51 10 -90 14 -87 4 2 16 -10 25 -28 41
-79 -17 -224 -143 -358 -118 -126 -246 -180 -422 -180 -129 0 -291 39 -291 70
0 13 39 13 118 0 222 -36 474 6 547 92 70 82 78 101 43 98 -39 -3 -40 -1 -19
33 11 19 18 36 15 39 -3 3 8 32 24 64 39 79 76 219 64 241 -8 14 -13 10 -30
-23 -10 -21 -25 -57 -32 -79 -22 -72 -78 -160 -134 -213 l-55 -52 -45 45 c-25
25 -46 49 -46 53 0 4 35 63 78 132 117 184 188 310 202 354 l13 40 18 -23 c10
-13 26 -46 34 -74z m-1077 -16 c-2 -10 -12 -15 -23 -13 -33 6 -40 19 -26 49
l13 28 19 -24 c11 -13 18 -31 17 -40z m102 47 c0 -5 0 -26 0 -48 0 -34 -3 -40
-21 -40 -39 0 -59 19 -59 55 0 23 5 35 18 38 24 7 63 3 62 -5z m120 -38 c0
-49 -1 -50 -29 -50 -52 0 -61 8 -61 56 l0 44 45 0 45 0 0 -50z m123 3 c6 -57
3 -63 -29 -63 -40 0 -61 17 -68 55 -9 47 -2 55 48 55 l43 0 6 -47z m127 10 c0
-69 -17 -83 -77 -67 -19 5 -23 13 -23 50 l0 44 50 0 c48 0 50 -1 50 -27z m106
4 c3 -3 6 -50 5 -65 -1 -9 -15 -12 -48 -10 l-46 3 0 38 c1 20 2 41 2 46 1 7
80 -4 87 -12z m802 -26 c7 -9 14 -14 16 -11 1 3 17 -7 35 -22 50 -43 11 -33
-48 12 -68 50 -72 54 -41 45 14 -4 31 -14 38 -24z m-728 -3 c-1 -18 -25 -48
-38 -48 -7 0 -9 8 -5 18 8 23 24 42 34 42 5 0 9 -6 9 -12z m2810 -28 c0 -5 -5
-10 -11 -10 -5 0 -7 5 -4 10 3 6 8 10 11 10 2 0 4 -4 4 -10z m-3242 -83 c2
-36 1 -37 -25 -31 -50 11 -53 13 -53 44 0 30 2 31 37 28 36 -3 38 -5 41 -41z
m226 37 c11 -4 16 -19 16 -45 0 -36 -2 -39 -29 -39 -50 0 -61 9 -61 51 0 36 2
39 29 39 16 0 36 -3 45 -6z m2996 -4 c0 -5 -7 -10 -15 -10 -9 0 -12 -6 -9 -17
5 -15 4 -16 -5 -3 -15 21 -14 28 7 33 9 3 18 5 20 6 1 0 2 -3 2 -9z m-3340
-24 c0 -27 -15 -42 -25 -27 -3 6 -12 8 -20 4 -11 -4 -15 2 -15 21 0 22 4 26
30 26 25 0 30 -4 30 -24z m240 -10 c0 -37 -17 -48 -64 -39 -22 5 -26 11 -26
39 0 34 1 34 45 34 44 0 45 0 45 -34z m206 24 c22 0 24 -3 19 -22 -8 -28 -32
-48 -57 -48 -14 0 -18 8 -18 41 0 33 3 40 16 35 9 -3 27 -6 40 -6z m748 -35
c34 -19 106 -46 160 -60 54 -15 117 -35 140 -45 24 -10 78 -26 120 -35 97 -22
296 -17 367 9 l46 17 99 -66 c92 -62 198 -118 337 -179 31 -14 57 -29 57 -33
0 -4 -31 -21 -68 -38 -121 -54 -218 -181 -237 -310 -5 -39 -15 -57 -45 -87
-47 -48 -73 -49 -171 -7 -86 37 -189 50 -215 28 -15 -12 -19 -11 -32 9 -60 90
-142 187 -286 338 -261 271 -323 346 -335 405 -12 56 -14 89 -5 89 3 0 34 -16
68 -35z m2076 31 c0 -3 -4 -8 -10 -11 -5 -3 -10 -1 -10 4 0 6 5 11 10 11 6 0
10 -2 10 -4z m270 -6 c-8 -5 -19 -10 -25 -10 -5 0 -3 5 5 10 8 5 20 10 25 10
6 0 3 -5 -5 -10z m-760 -4 c0 -2 -7 -9 -15 -16 -13 -11 -14 -10 -9 4 5 14 24
23 24 12z m-40 -20 c0 -3 -4 -8 -10 -11 -5 -3 -10 -1 -10 4 0 6 5 11 10 11 6
0 10 -2 10 -4z m6 -38 c3 -4 -1 -5 -10 -4 -8 1 -18 5 -22 8 -3 4 1 5 10 4 8
-1 18 -5 22 -8z m-2641 -38 c-3 -5 -10 -10 -16 -10 -5 0 -9 5 -9 10 0 6 7 10
16 10 8 0 12 -4 9 -10z m123 -18 c3 -21 0 -23 -30 -20 -26 2 -34 8 -36 26 -3
21 0 23 30 20 26 -2 34 -8 36 -26z m119 -5 c-8 -12 -26 -23 -41 -25 -22 -3
-26 1 -26 22 0 21 5 25 33 28 44 5 51 0 34 -25z m2206 6 c-7 -2 -19 -2 -25 0
-7 3 -2 5 12 5 14 0 19 -2 13 -5z m864 -19 c-3 -3 -12 -4 -19 -1 -8 3 -5 6 6
6 11 1 17 -2 13 -5z m-3548 -76 c0 -7 -4 -22 -9 -33 -7 -17 -9 -15 -9 13 -1
17 4 32 9 32 6 0 10 -6 9 -12z m1439 -238 c57 -63 150 -167 207 -231 114 -128
165 -201 165 -237 0 -40 -60 -140 -113 -188 -52 -47 -104 -68 -152 -62 -29 4
-28 4 14 17 73 21 152 87 189 158 20 36 14 36 -30 -1 -23 -20 -47 -36 -53 -36
-17 0 -49 39 -71 86 -11 22 -25 39 -31 37 -6 -2 -25 24 -42 59 -49 102 -116
162 -224 203 -37 14 -80 25 -96 25 -25 0 -30 6 -44 51 -14 43 -15 53 -3 72 7
12 35 73 61 135 l49 114 35 -43 c20 -24 82 -96 139 -159z m-1019 134 c-21 -25
-110 -81 -181 -113 -72 -32 -81 -46 -48 -76 19 -17 27 -18 75 -8 70 15 150 54
225 109 33 24 63 44 66 44 15 0 -104 -98 -160 -133 -78 -48 -213 -100 -240
-93 -24 6 -126 93 -126 107 0 5 9 9 19 9 33 0 171 58 276 115 113 61 112 61
94 39z m-307 -26 c-15 -15 -26 -4 -18 18 5 13 9 15 18 6 9 -9 9 -15 0 -24z
m4150 -30 c41 -23 72 -61 74 -91 1 -10 -1 -15 -4 -12 -3 2 -14 -5 -24 -18 -17
-19 -29 -22 -101 -22 -96 0 -125 14 -152 75 -22 48 -35 51 -35 8 0 -91 80
-141 230 -144 106 -3 123 3 147 49 l16 32 10 -29 c10 -31 -8 -66 -53 -95 -22
-15 -24 -15 -17 2 8 21 -6 22 -38 1 -13 -9 -30 -12 -36 -8 -7 4 -9 3 -5 -4 4
-7 -10 -13 -39 -16 -25 -3 -65 -9 -90 -12 -56 -7 -149 11 -192 37 -36 22 -69
94 -60 131 13 50 105 117 191 139 48 12 135 1 178 -23z m-1520 -154 c11 -10
-78 -211 -110 -246 -18 -22 -50 -23 -77 -2 -17 13 -18 16 -5 24 10 7 11 10 3
10 -22 0 -53 39 -53 67 0 34 90 124 140 140 39 12 94 16 102 7z m-1932 -9 c0
-6 -50 -31 -80 -39 -14 -4 -5 5 20 18 45 25 60 30 60 21z m306 -73 c-11 -10
-15 4 -8 28 l7 25 3 -23 c2 -13 1 -26 -2 -30z m3446 -108 c46 -31 90 -63 98
-71 13 -13 11 -13 -15 -6 -39 10 -163 10 -243 -1 -59 -8 -62 -8 -55 10 6 17 5
17 -10 5 -14 -11 -17 -11 -17 0 0 25 106 119 133 119 15 0 62 -24 109 -56z
m-516 -115 c24 -10 68 -21 96 -25 39 -5 48 -9 33 -15 -39 -15 -92 -9 -141 17
-57 30 -129 96 -151 139 -13 24 -1 16 52 -33 37 -35 87 -72 111 -83z m-1521
13 c19 -22 31 -42 28 -46 -3 -3 1 -6 9 -6 16 0 33 -28 23 -38 -20 -20 -125
112 -125 157 0 42 14 47 23 8 5 -20 24 -53 42 -75z m1540 88 c22 -10 34 -19
27 -19 -16 -1 -82 26 -82 33 0 9 12 6 55 -14z m-2815 -1 c97 -22 180 -113 180
-197 0 -24 -4 -41 -9 -38 -5 3 -15 -1 -22 -10 -27 -32 -130 -106 -181 -128
-87 -39 -115 -40 -146 -8 -82 85 -112 131 -112 175 0 18 -2 19 -10 7 -27 -41
23 -152 122 -272 46 -55 59 -56 152 -8 80 40 174 128 182 170 4 17 11 33 17
37 14 8 2 -48 -19 -93 -9 -19 -41 -57 -72 -84 -54 -48 -176 -120 -204 -120
-20 0 -117 95 -157 154 -37 54 -61 121 -61 172 0 19 12 59 27 90 20 43 41 67
85 100 33 24 76 46 96 49 20 4 44 8 52 10 27 5 34 5 80 -6z m2488 -164 c0 -16
-2 -15 -8 5 -4 14 -8 36 -8 50 0 22 1 22 8 -5 4 -16 8 -39 8 -50z m943 24 c40
-14 89 -46 89 -59 0 -24 -67 -78 -105 -85 -22 -4 -46 -11 -52 -17 -9 -7 -13
-7 -13 1 0 20 -24 12 -85 -29 -52 -35 -67 -40 -115 -40 -31 0 -82 7 -113 15
-66 17 -183 20 -192 5 -4 -6 18 -10 60 -10 57 0 135 -19 135 -34 0 -2 -15 -3
-32 -1 -68 6 -233 27 -235 29 -7 6 178 132 240 164 120 60 209 83 303 77 44
-3 96 -10 115 -16z m-2191 -91 c39 -50 39 -50 24 -86 -8 -21 -22 -43 -32 -50
-43 -33 -111 -105 -106 -113 3 -5 1 -9 -4 -9 -4 0 -23 34 -42 76 -18 42 -44
89 -57 105 l-24 28 38 21 c21 11 60 36 86 55 26 19 54 32 62 28 8 -3 33 -28
55 -55z m-445 33 c55 -25 111 -90 150 -175 35 -74 51 -136 36 -136 -5 0 -38
32 -73 71 -52 59 -181 159 -204 159 -4 0 27 -26 67 -58 111 -88 205 -197 139
-162 -11 6 -20 14 -20 19 0 4 -12 14 -27 22 -16 7 -61 42 -100 77 -75 66 -93
99 -93 170 0 31 1 32 43 32 23 0 60 -9 82 -19z m2825 -160 c19 -90 7 -156 -50
-269 -48 -96 -146 -221 -160 -205 -4 4 -10 43 -12 86 l-5 79 19 -31 c11 -17
24 -31 28 -31 13 0 75 89 108 155 50 101 68 180 53 244 -5 22 -5 39 -1 36 4
-2 13 -31 20 -64z m-676 -101 c68 -17 186 -72 186 -86 0 -3 -5 -2 -12 2 -8 5
-9 2 -4 -12 15 -36 11 -48 -21 -57 -17 -5 -34 -18 -36 -28 -3 -11 -12 -19 -21
-19 -9 0 -16 -8 -16 -18 0 -13 -8 -18 -27 -17 -14 0 -28 -6 -30 -12 -3 -8 4
-13 16 -13 11 0 27 -10 35 -22 11 -15 16 -18 16 -8 0 13 1 13 10 0 6 -10 2
-19 -18 -32 -15 -10 -36 -18 -46 -18 -19 0 -19 0 0 -22 l19 -22 -30 22 c-82
61 -116 81 -185 110 -41 16 -113 40 -160 51 -46 12 -89 26 -94 31 -12 12 55
101 103 134 83 58 185 70 315 36z m-1796 -127 c7 -37 15 -70 18 -72 3 -3 25 2
50 11 56 20 54 4 -4 -35 -48 -32 -62 -29 -62 16 -1 18 -7 58 -14 90 -8 31 -11
57 -7 57 3 0 12 -30 19 -67z m-1068 -38 c106 -41 313 -86 484 -105 97 -10 124
-20 57 -20 -156 0 -426 35 -521 67 -75 26 -170 69 -170 78 0 14 95 2 150 -20z
m775 -107 l100 -101 -80 70 c-94 83 -142 133 -129 133 5 0 54 -46 109 -102z
m1756 1 c65 -21 219 -89 219 -96 0 -18 -58 -85 -78 -90 -49 -12 -266 47 -285
78 -19 31 27 129 61 129 10 0 48 -9 83 -21z m714 -127 c-8 -43 -80 -155 -125
-195 -64 -57 -98 -71 -190 -75 -109 -5 -144 9 -154 64 -9 43 -2 53 25 36 10
-7 49 -19 85 -27 63 -15 67 -15 132 9 91 33 122 48 122 58 0 5 -6 6 -12 1 -18
-11 -159 -20 -155 -9 1 4 29 19 62 32 81 33 123 65 165 123 27 39 37 46 43 34
5 -8 6 -31 2 -51z m-359 -69 c30 -26 57 -70 46 -76 -9 -7 -59 0 -114 14 -42
11 -45 22 -23 75 14 34 15 35 42 20 15 -9 37 -24 49 -33z m-430 -48 c11 -3 44
-12 74 -20 30 -9 76 -15 103 -13 l47 3 0 -54 0 -54 -69 5 c-81 6 -144 37 -178
87 -26 39 -32 81 -9 62 8 -7 22 -14 32 -16z m17 -187 c80 -50 143 -65 202 -45
41 15 50 14 116 -5 42 -11 91 -18 119 -16 l48 3 7 -100 c8 -115 4 -174 -10
-178 -5 -1 -22 24 -38 56 -29 61 -52 77 -111 77 l-32 0 1 -544 c2 -538 2 -544
23 -578 12 -20 22 -45 22 -58 0 -21 -2 -21 -72 -15 -40 3 -117 7 -170 8 -54 1
-98 6 -98 11 0 6 12 28 28 50 l27 40 1 270 c0 149 4 401 9 560 l7 289 -37 -6
c-21 -3 -56 -22 -80 -42 -24 -19 -48 -35 -53 -35 -6 0 -8 43 -5 118 5 111 4
118 -17 137 -22 19 -22 19 -39 -4 -16 -21 -18 -70 -24 -595 -5 -516 -2 -663
18 -746 l6 -25 -100 0 -100 0 -31 130 c-17 72 -54 213 -82 315 -28 102 -58
213 -67 247 -25 95 -35 89 -26 -17 4 -52 9 -203 11 -335 2 -132 4 -245 4 -252
0 -6 12 -25 26 -42 14 -17 23 -35 19 -41 -7 -11 -315 -14 -315 -3 0 4 11 23
24 42 l24 36 6 625 6 625 -25 38 -26 37 49 0 c27 0 83 3 125 6 90 8 73 32 147
-206 28 -91 63 -201 79 -244 l28 -79 2 203 c1 111 4 213 7 225 3 13 -3 40 -15
63 -12 23 -21 43 -21 44 0 2 78 1 172 -2 l173 -5 58 -37z m-853 8 c-5 -13 -12
-78 -16 -145 -5 -88 -10 -121 -20 -121 -7 0 -19 -3 -27 -6 -11 -4 -17 5 -22
35 -3 21 -12 41 -18 43 -7 2 -54 2 -104 0 l-93 -3 0 -180 0 -179 23 4 c12 3
49 8 82 11 33 4 77 16 97 26 21 11 38 16 39 12 3 -25 -2 -266 -7 -310 -8 -69
-30 -71 -39 -3 -4 27 -10 52 -15 55 -4 2 -46 -1 -94 -7 l-86 -12 0 -193 c0
-106 3 -193 8 -193 4 0 49 5 101 10 98 11 135 25 146 59 3 10 12 22 20 25 13
5 15 -18 15 -152 l0 -158 -182 -12 c-101 -6 -225 -19 -276 -28 -52 -9 -96 -13
-99 -10 -4 3 5 30 20 58 l26 53 3 617 3 616 -33 41 c-17 22 -32 41 -32 43 0 2
53 4 118 6 64 2 178 7 252 11 234 14 221 15 210 -13z m-699 -63 c18 -10 41
-31 53 -46 20 -27 21 -39 21 -307 l0 -279 -42 -43 c-24 -24 -43 -49 -43 -56 0
-6 15 -28 33 -48 l32 -37 5 -232 5 -232 28 -42 c15 -23 25 -46 22 -51 -3 -6
-28 -10 -55 -10 -44 0 -159 -19 -219 -36 -22 -7 -23 -5 -17 17 21 69 23 101
16 251 -11 230 -39 308 -110 308 l-30 0 0 -246 0 -247 30 -52 30 -52 -83 -7
c-45 -4 -115 -14 -156 -22 -40 -8 -75 -13 -78 -10 -3 3 5 22 18 43 l24 38 5
640 c5 661 5 672 -34 704 -9 8 -16 17 -16 21 0 4 42 11 93 15 50 3 144 15 207
25 132 22 216 20 261 -7z m2299 7 c151 -18 141 -13 120 -57 -16 -33 -19 -81
-25 -393 -4 -195 -11 -359 -15 -365 -5 -5 -11 -118 -15 -250 -7 -234 -7 -242
14 -280 12 -22 27 -48 33 -57 7 -9 9 -20 6 -23 -3 -4 -68 3 -142 15 -75 12
-151 20 -169 19 -38 -4 -38 8 1 57 l27 34 0 273 c0 149 7 374 14 498 11 174
12 262 4 380 -11 162 -9 174 32 165 11 -2 63 -10 115 -16z m290 -44 c41 -8
105 -18 143 -22 72 -7 82 -18 46 -50 l-22 -19 7 -635 7 -635 30 -48 c35 -58
37 -71 7 -63 -76 22 -242 56 -272 56 -41 0 -44 7 -16 43 20 25 20 40 20 657
l0 633 -30 49 c-35 56 -36 61 -12 54 9 -3 51 -12 92 -20z m-3244 -79 l34 -37
0 -633 0 -632 25 -38 c19 -27 22 -38 13 -41 -7 -2 -66 -16 -131 -30 -65 -15
-129 -31 -142 -36 -35 -13 -38 2 -10 40 l25 34 0 258 c0 142 -3 258 -6 258 -3
0 -35 -8 -70 -17 l-64 -17 0 -256 c0 -236 2 -259 20 -295 21 -41 15 -55 -21
-55 -41 0 -192 -53 -245 -85 -33 -19 -67 -35 -76 -35 -10 0 -32 -7 -50 -15
-84 -36 -220 -86 -225 -81 -3 3 5 22 18 43 l24 38 0 398 c0 219 -3 377 -8 350
-50 -318 -141 -715 -194 -841 -32 -77 -36 -74 -92 63 -33 84 -94 314 -149 565
-8 37 -11 12 -13 -135 -2 -99 -2 -268 0 -375 3 -172 5 -198 22 -221 24 -34 24
-45 2 -52 -56 -17 -207 -78 -225 -92 -27 -18 -58 -20 -58 -2 1 6 7 23 15 37
12 21 14 145 15 782 l0 758 -36 40 c-20 22 -35 43 -32 45 7 7 281 85 298 85
12 0 30 -56 75 -232 32 -128 77 -304 100 -391 l41 -158 28 143 c16 79 48 224
72 323 46 189 75 336 78 395 2 34 3 35 51 41 55 7 155 31 227 53 30 9 50 11
54 5 3 -5 -9 -32 -26 -59 l-31 -49 6 -698 6 -698 25 -25 c15 -15 24 -19 24
-11 0 8 14 37 31 65 l31 50 0 641 c0 390 3 655 9 678 14 55 92 132 149 147
122 33 220 49 284 47 65 -3 70 -5 102 -40z m3619 23 c11 -4 45 -11 75 -14 122
-15 124 -17 89 -65 -21 -29 -21 -31 -16 -605 5 -652 -2 -601 89 -632 27 -9 54
-14 61 -11 9 3 12 143 11 604 l0 599 -23 37 c-12 20 -19 37 -14 37 4 0 44 -9
88 -19 44 -11 108 -23 143 -27 34 -3 65 -11 68 -16 3 -5 -7 -25 -22 -45 l-27
-36 7 -637 c8 -708 10 -683 -58 -735 -52 -40 -99 -42 -197 -10 -198 65 -267
114 -321 223 l-33 67 0 290 c0 159 2 436 5 615 l5 325 -30 39 -29 38 54 -7
c30 -4 64 -11 75 -15z m862 -187 c28 -7 103 -34 167 -58 64 -24 136 -47 161
-51 l45 -6 0 -118 c0 -66 4 -130 10 -144 9 -24 3 -29 -111 -111 -66 -48 -122
-85 -125 -83 -2 3 1 30 6 61 6 31 10 90 8 132 l-3 76 -70 28 c-38 16 -75 26
-81 24 -12 -4 -26 -313 -16 -341 2 -7 67 -64 143 -128 150 -125 218 -196 249
-260 19 -39 20 -53 12 -350 -6 -275 -9 -313 -25 -338 -24 -36 -81 -60 -127
-52 -19 3 -123 48 -230 101 -107 52 -205 95 -217 95 l-22 0 -3 238 c-2 130 -2
239 0 241 1 3 15 -7 30 -21 40 -37 70 -50 132 -57 l55 -6 0 -110 0 -109 45
-23 c58 -29 113 -45 121 -35 4 4 9 92 10 195 l4 188 -121 99 c-67 54 -157 139
-202 188 l-80 90 4 208 c8 410 8 409 87 444 43 20 51 19 144 -7z m-2687 -1272
c3 -2 37 -3 75 -3 61 0 65 -1 30 -7 -121 -24 -227 -31 -480 -35 -291 -4 -388
0 -348 15 25 9 173 17 462 24 113 3 206 7 208 9 3 3 43 1 53 -3z m-2525 -336
c-67 -32 -120 -46 -99 -26 11 12 134 59 154 59 8 0 -16 -15 -55 -33z m1592 -1
c-3 -3 -12 -4 -19 -1 -8 3 -5 6 6 6 11 1 17 -2 13 -5z m46 -11 c-7 -2 -19 -2
-25 0 -7 3 -2 5 12 5 14 0 19 -2 13 -5z"/>
<path d="M6350 8520 c0 -5 5 -10 11 -10 5 0 7 5 4 10 -3 6 -8 10 -11 10 -2 0
-4 -4 -4 -10z"/>
<path d="M6030 8496 c0 -2 9 -6 20 -9 11 -3 20 -1 20 4 0 5 -9 9 -20 9 -11 0
-20 -2 -20 -4z"/>
<path d="M4152 7861 c-7 -21 -12 -45 -11 -52 0 -8 7 8 15 35 9 26 13 50 11 52
-2 2 -9 -13 -15 -35z"/>
<path d="M3866 6889 c-157 -38 -293 -186 -326 -354 -6 -33 -16 -76 -21 -96 -5
-20 -9 -52 -8 -70 1 -22 7 -5 19 51 10 47 23 98 29 113 6 16 11 39 11 53 0 57
81 154 127 154 11 0 14 -3 7 -8 -6 -4 -38 -47 -71 -97 -70 -104 -81 -143 -89
-314 -7 -142 16 -266 72 -380 43 -87 89 -140 189 -216 114 -88 235 -122 335
-95 181 49 303 183 356 390 42 163 -15 481 -103 581 -7 9 -13 20 -12 25 4 21
-2 35 -11 29 -5 -3 -7 0 -4 8 3 8 1 18 -5 22 -6 3 -11 1 -11 -6 0 -6 -24 11
-53 39 -68 64 -156 106 -256 123 -59 9 -185 -4 -207 -22 -7 -6 -21 -9 -31 -7
-21 5 86 48 118 48 11 0 17 5 14 10 -7 11 8 14 18 3 4 -3 33 -8 64 -10 94 -6
147 -26 263 -99 15 -10 11 -4 -10 16 -19 17 -73 50 -119 73 -76 38 -92 42
-165 44 -45 1 -98 -2 -120 -8z m-112 -114 c-42 -36 -56 -30 -16 6 19 17 36 28
40 25 3 -3 -8 -17 -24 -31z m450 -115 c100 -49 127 -183 53 -267 -40 -45 -82
-63 -149 -63 -65 0 -115 24 -145 69 -105 157 69 345 241 261z m75 -379 c54
-50 36 -113 -37 -127 -26 -5 -36 -1 -63 25 -37 37 -34 72 7 109 33 29 56 28
93 -7z m-246 -112 c16 -18 27 -40 27 -58 l0 -29 53 14 c64 16 105 20 134 10
22 -7 22 -8 6 -42 -20 -41 -78 -72 -150 -81 -66 -7 -109 8 -166 60 -59 55 -62
84 -12 134 40 40 64 39 108 -8z m-274 -169 c50 -49 93 -80 157 -111 84 -42 91
-44 178 -44 80 0 98 4 149 29 32 15 83 52 114 82 30 30 57 54 59 54 2 0 4 -17
4 -37 -1 -83 -70 -171 -170 -217 -107 -49 -228 -44 -348 15 -115 56 -174 125
-223 260 -34 93 -40 149 -9 80 11 -24 51 -74 89 -111z"/>
<path d="M4882 6260 c0 -14 2 -19 5 -12 2 6 2 18 0 25 -3 6 -5 1 -5 -13z"/>
<path d="M3645 5729 c9 -17 19 -28 22 -25 8 8 -17 56 -29 56 -5 0 -1 -14 7
-31z"/>
<path d="M3760 5676 c0 -2 8 -10 18 -17 15 -13 16 -12 3 4 -13 16 -21 21 -21
13z"/>
<path d="M4946 5640 c-69 -94 -192 -102 -295 -20 -41 32 -69 38 -89 18 -32
-32 10 -87 112 -144 111 -62 243 -33 326 71 33 42 38 75 14 99 -23 24 -36 19
-68 -24z"/>
<path d="M5735 5670 c-19 -8 -19 -9 3 -9 12 -1 22 4 22 9 0 6 -1 10 -2 9 -2 0
-12 -4 -23 -9z"/>
<path d="M3740 5581 c0 -6 4 -13 10 -16 6 -3 7 1 4 9 -7 18 -14 21 -14 7z"/>
<path d="M5330 5380 c-13 -8 -12 -10 3 -10 9 0 17 5 17 10 0 12 -1 12 -20 0z"/>
<path d="M5205 5330 c-19 -8 -19 -9 2 -9 12 -1 25 4 28 9 7 12 -2 12 -30 0z"/>
<path d="M5140 5309 c0 -5 5 -7 10 -4 6 3 10 8 10 11 0 2 -4 4 -10 4 -5 0 -10
-5 -10 -11z"/>
<path d="M4597 5251 c-3 -12 -1 -21 3 -21 14 0 19 15 11 29 -6 9 -10 7 -14 -8z"/>
<path d="M6900 7604 c0 -12 7 -14 33 -9 51 11 56 25 9 25 -32 0 -42 -4 -42
-16z"/>
<path d="M7523 6445 c0 -44 2 -61 4 -37 2 23 2 59 0 80 -2 20 -4 1 -4 -43z"/>
<path d="M2187 5762 c-2 -4 -1 -18 3 -32 l6 -25 8 23 c5 16 15 22 38 22 17 0
29 2 27 4 -9 7 -79 14 -82 8z"/>
<path d="M3320 5050 c0 -5 21 -34 48 -64 26 -29 110 -125 187 -212 213 -242
197 -229 289 -243 43 -7 103 -21 134 -32 30 -10 59 -19 63 -19 5 0 20 38 34
84 27 87 76 169 147 243 l40 41 -33 18 c-75 38 -186 108 -215 136 l-30 28 -45
-17 c-36 -14 -74 -17 -209 -17 -143 1 -178 4 -260 26 -140 38 -150 39 -150 28z
m614 -169 c8 -15 30 -41 49 -58 l34 -30 -43 -27 c-28 -17 -48 -39 -55 -61
l-12 -33 -23 47 c-12 27 -32 56 -45 65 l-23 16 35 32 c20 18 39 43 43 56 10
30 22 28 40 -7z"/>
<path d="M6018 3763 c6 -2 18 -2 25 0 6 3 1 5 -13 5 -14 0 -19 -2 -12 -5z"/>
<path d="M3833 3118 l-63 -10 0 -204 c0 -112 3 -204 6 -204 16 0 144 41 148
48 2 4 6 90 7 192 4 212 13 195 -98 178z"/>
<path d="M6320 2516 c0 -8 60 -12 72 -4 8 4 -4 8 -29 8 -24 0 -43 -2 -43 -4z"/>
<path d="M6801 1894 c0 -11 3 -14 6 -6 3 7 2 16 -1 19 -3 4 -6 -2 -5 -13z"/>
<path d="M3158 3012 l-68 -15 0 -229 c0 -125 3 -228 8 -227 4 0 34 6 67 13 49
10 61 17 66 37 10 33 11 427 2 432 -5 2 -38 -3 -75 -11z"/>
<path d="M3378 2433 c7 -3 16 -2 19 1 4 3 -2 6 -13 5 -11 0 -14 -3 -6 -6z"/>
<path d="M2321 1614 c0 -11 3 -14 6 -6 3 7 2 16 -1 19 -3 4 -6 -2 -5 -13z"/>
<path d="M2290 1544 c0 -8 5 -12 10 -9 6 3 10 10 10 16 0 5 -4 9 -10 9 -5 0
-10 -7 -10 -16z"/>
<path d="M7688 9004 c18 -8 43 -15 55 -17 12 -1 28 -9 35 -17 12 -13 13 -13 9
0 -5 19 -41 36 -92 44 l-40 5 33 -15z"/>
<path d="M7805 8960 c3 -5 8 -10 11 -10 2 0 4 5 4 10 0 6 -5 10 -11 10 -5 0
-7 -4 -4 -10z"/>
<path d="M6774 8890 c-5 -5 -18 -11 -29 -13 -34 -5 -163 -89 -187 -122 -17
-23 -17 -24 16 -44 35 -22 47 -26 44 -13 -7 24 65 104 144 159 21 14 35 29 32
34 -7 11 -8 11 -20 -1z"/>
<path d="M7935 8887 c11 -7 72 -65 137 -129 84 -83 125 -132 143 -170 13 -29
34 -64 46 -78 12 -14 3 10 -21 57 -43 84 -118 178 -205 255 -53 46 -99 78
-112 77 -4 0 1 -6 12 -12z"/>
<path d="M7370 8834 c-77 -16 -176 -47 -255 -81 -86 -36 -114 -52 -261 -145
-33 -21 -69 -38 -80 -38 -15 0 -11 -7 20 -37 36 -36 38 -37 49 -18 17 29 156
163 197 190 19 13 78 38 130 56 93 33 99 34 260 34 163 0 166 0 225 -30 120
-59 295 -186 295 -214 0 -6 4 -11 8 -11 12 0 128 -179 146 -225 9 -22 22 -69
30 -104 8 -34 17 -66 20 -69 12 -11 5 96 -9 152 -15 58 -80 176 -96 176 -5 0
-20 18 -35 41 -74 118 -248 250 -394 299 -62 21 -199 34 -250 24z"/>
<path d="M6880 8807 c-14 -6 -27 -14 -30 -17 -10 -11 -75 -55 -110 -74 -19
-10 -42 -26 -50 -35 -8 -9 -24 -15 -35 -13 -15 2 -11 -6 18 -34 l39 -36 17 28
c10 16 57 66 105 112 87 82 93 91 46 69z"/>
<path d="M8291 8445 c1 -19 18 -51 18 -35 0 8 -4 22 -9 30 -5 8 -9 11 -9 5z"/>
<path d="M7320 8183 c-33 -12 -60 -47 -60 -77 1 -42 33 -112 59 -126 31 -16
94 4 125 41 38 45 35 92 -8 135 -34 34 -73 43 -116 27z"/>
<path d="M1435 8110 c-3 -5 -2 -10 4 -10 5 0 13 5 16 10 3 6 2 10 -4 10 -5 0
-13 -4 -16 -10z"/>
<path d="M1355 8030 c-3 -5 -1 -10 4 -10 6 0 11 5 11 10 0 6 -2 10 -4 10 -3 0
-8 -4 -11 -10z"/>
<path d="M8701 7217 c-27 -44 -82 -169 -77 -174 2 -3 15 1 28 9 32 18 269 19
276 1 7 -22 20 -14 31 18 16 45 14 57 -11 64 -11 4 -62 32 -112 61 -50 30 -96
54 -102 54 -7 0 -21 -15 -33 -33z"/>
<path d="M752 6980 c0 -14 2 -19 5 -12 2 6 2 18 0 25 -3 6 -5 1 -5 -13z"/>
<path d="M742 6938 c-1 -10 -2 -20 -2 -23 0 -3 -9 -33 -20 -67 -11 -34 -18
-64 -16 -66 9 -9 47 115 43 142 -2 17 -5 23 -5 14z"/>
<path d="M2446 6117 c-17 -34 -33 -70 -38 -79 -7 -18 18 -28 125 -54 l28 -6
-7 83 c-8 101 -22 148 -23 77 -1 -42 -3 -46 -22 -41 -18 5 -21 11 -16 44 8 59
-13 48 -47 -24z"/>
<path d="M730 6090 c0 -5 5 -10 10 -10 6 0 10 5 10 10 0 6 -4 10 -10 10 -5 0
-10 -4 -10 -10z"/>
<path d="M727 6040 c-5 -21 7 -27 18 -9 4 6 13 8 21 5 8 -3 11 0 7 10 -8 21
-40 17 -46 -6z"/>
<path d="M9018 5728 c-17 -15 -31 -48 -19 -48 10 0 66 -128 86 -198 23 -76 24
-118 4 -148 -20 -31 -24 -26 -38 51 -20 106 -74 219 -131 270 -32 29 -32 13 0
-51 16 -33 32 -82 35 -109 l5 -50 -25 50 c-48 94 -51 87 -28 -49 4 -27 3 -37
-5 -32 -10 6 -18 46 -25 126 -3 40 -26 80 -44 80 -16 0 -16 4 3 -59 23 -79 14
-96 -22 -38 -31 51 -36 54 -53 33 -9 -11 -6 -22 14 -51 26 -39 34 -72 14 -59
-18 11 -1 -219 19 -259 9 -17 18 -61 21 -97 l6 -65 21 35 c12 19 25 49 28 66
6 27 10 30 36 26 22 -3 30 -10 32 -26 1 -11 2 -30 3 -41 1 -11 3 -29 4 -40 2
-18 4 -17 24 8 25 29 37 27 37 -7 1 -48 17 -49 41 -2 25 51 36 57 43 24 18
-87 23 -102 32 -105 6 -2 20 13 30 34 27 54 27 312 0 428 -21 89 -105 306
-121 312 -6 2 -18 -2 -27 -9z m-101 -360 c-3 -7 -5 -2 -5 12 0 14 2 19 5 13 2
-7 2 -19 0 -25z"/>
<path d="M4923 4639 c-67 -12 -124 -42 -181 -94 -148 -134 -194 -296 -137
-485 21 -67 102 -151 190 -195 54 -26 70 -29 155 -30 88 0 101 3 161 32 97 48
152 101 196 190 34 69 38 85 41 172 5 115 -14 177 -83 270 -82 111 -213 164
-342 140z m175 -91 c115 -54 183 -194 161 -333 -12 -72 -18 -95 -27 -95 -4 0
-6 34 -4 75 7 158 -39 258 -142 310 -107 53 -204 33 -302 -61 -113 -110 -122
-272 -21 -381 47 -51 93 -78 153 -87 48 -8 84 4 161 57 37 25 50 30 43 17 -20
-37 -118 -90 -166 -90 -13 0 -24 -4 -24 -10 0 -22 83 -10 135 20 43 24 55 28
64 17 8 -11 2 -19 -30 -36 -35 -20 -51 -22 -117 -19 -110 6 -183 38 -252 107
-36 36 -60 70 -68 97 -33 111 5 238 102 342 86 92 224 121 334 70z m-19 -88
c53 -27 97 -83 112 -143 13 -54 6 -178 -12 -206 -8 -12 -9 -8 -5 17 17 96 17
100 1 56 -48 -127 -214 -212 -313 -160 -77 40 -125 170 -97 264 23 77 67 129
138 163 73 34 123 37 176 9z"/>
<path d="M1986 4287 c3 -10 9 -15 12 -12 3 3 0 11 -7 18 -10 9 -11 8 -5 -6z"/>
<path d="M2042 4163 c16 -38 37 -75 45 -83 8 -8 -4 22 -26 68 -23 45 -43 82
-45 82 -3 0 9 -30 26 -67z"/>
<path d="M8258 4153 c6 -2 18 -2 25 0 6 3 1 5 -13 5 -14 0 -19 -2 -12 -5z"/>
<path d="M8921 3544 c-11 -14 -37 -69 -57 -122 -20 -53 -56 -140 -79 -192 -23
-52 -48 -112 -54 -132 -7 -21 -17 -40 -22 -44 -5 -3 -36 4 -69 15 -33 12 -84
21 -113 21 -44 0 -58 -4 -77 -25 -22 -23 -23 -28 -10 -48 8 -13 19 -80 26
-165 7 -79 15 -146 17 -149 3 -2 37 -9 75 -15 86 -14 137 2 198 60 37 36 54
65 156 267 22 44 42 82 44 84 5 6 84 -67 117 -107 20 -26 27 -46 27 -78 0 -41
-2 -44 -27 -44 -16 0 -45 4 -66 9 -33 8 -42 6 -67 -15 -31 -26 -70 -98 -70
-129 0 -41 42 -105 84 -130 91 -53 203 -19 276 83 67 92 103 193 108 298 5
110 -4 142 -65 231 -115 168 -215 293 -260 322 -56 38 -66 38 -92 5z m141
-186 c67 -82 133 -185 165 -255 22 -47 25 -65 21 -122 -7 -93 -69 -214 -142
-279 -67 -59 -146 -37 -146 41 0 36 42 80 72 75 18 -2 24 -12 30 -47 9 -54 14
-60 33 -35 41 53 68 128 73 199 6 91 -3 106 -122 224 -66 66 -88 82 -98 73 -7
-6 -42 -65 -78 -132 -143 -266 -175 -308 -249 -327 -34 -9 -101 17 -122 47 -9
14 -20 51 -24 82 -8 73 12 98 80 98 58 0 97 -20 125 -65 12 -19 26 -35 31 -35
8 0 209 401 209 417 0 3 14 38 32 76 30 66 33 68 46 49 7 -11 36 -49 64 -84z"/>
<path d="M8618 2833 c7 -3 16 -2 19 1 4 3 -2 6 -13 5 -11 0 -14 -3 -6 -6z"/>
<path d="M8751 3363 c0 -7 -44 -58 -97 -113 -53 -55 -95 -102 -93 -104 2 -3
26 -6 53 -8 l48 -3 50 95 c34 65 48 104 45 120 -2 14 -5 19 -6 13z"/>
<path d="M8955 2990 c3 -5 13 -10 21 -10 8 0 14 5 14 10 0 6 -9 10 -21 10 -11
0 -17 -4 -14 -10z"/>
<path d="M6319 1601 c-29 -4 -59 -17 -80 -35 -246 -203 -632 -384 -974 -455
-216 -44 -334 -54 -595 -47 -135 3 -281 10 -325 16 -320 43 -715 151 -1035
284 l-86 35 -98 -20 c-96 -19 -143 -35 -133 -45 3 -3 28 -11 56 -19 28 -7 92
-36 143 -64 206 -115 752 -278 1038 -311 162 -18 551 -24 700 -11 495 45 923
192 1235 426 118 89 265 224 265 244 0 12 -37 12 -111 2z"/>
<path d="M5248 1573 c6 -2 18 -2 25 0 6 3 1 5 -13 5 -14 0 -19 -2 -12 -5z"/>
<path d="M1640 8321 c0 -6 5 -13 12 -17 6 -4 8 -3 4 4 -3 5 0 13 6 15 8 3 6 6
-4 6 -10 1 -18 -3 -18 -8z"/>
<path d="M1724 6510 c-28 -11 -54 -48 -54 -76 0 -29 34 -70 66 -78 30 -8 65
11 90 49 23 35 3 82 -42 101 -19 8 -35 14 -36 13 -2 0 -13 -4 -24 -9z"/>
<path d="M8088 5270 c-26 -27 -30 -36 -25 -68 7 -43 55 -92 90 -92 34 0 86 36
93 65 25 100 -86 167 -158 95z"/>
<path d="M8636 5005 c-9 -26 -7 -32 5 -12 6 10 9 21 6 23 -2 3 -7 -2 -11 -11z"/>
<path d="M722 3180 c0 -14 2 -19 5 -12 2 6 2 18 0 25 -3 6 -5 1 -5 -13z"/>
<path d="M800 2930 c6 -11 13 -20 16 -20 2 0 0 9 -6 20 -6 11 -13 20 -16 20
-2 0 0 -9 6 -20z"/>
<path d="M1384 3345 c-21 -21 -24 -31 -19 -58 10 -44 42 -77 77 -77 65 0 92
86 43 135 -31 32 -69 32 -101 0z"/>
</g>
</svg>
